<?xml version="1.0" encoding="UTF-8" standalone="no"?>
<svg
   version="1.1"
   id="svg19"
   xmlns="http://www.w3.org/2000/svg"
   xmlns:svg="http://www.w3.org/2000/svg">
  <defs
     id="defs19" />
  <path
     d="m 1509,172.6875 c 1.3528,0.002 2.7056,0.004 4.0584,0.006 20.136,0.038 39.9678,0.56462 59.9416,3.30698 1.2723,0.16629 2.5446,0.33258 3.8555,0.50391 65.6021,8.74263 128.482,30.02732 186.1445,62.49609 0.7552,0.42394 1.5105,0.84788 2.2886,1.28467 12.3118,6.95327 24.0433,14.73852 35.7114,22.71533 0.7691,0.52384 1.5382,1.04769 2.3306,1.5874 10.0337,6.86057 19.5659,14.1846 28.9092,21.95655 2.4597,2.03466 4.9572,4.02178 7.4477,6.01855 5.7702,4.72659 11.2049,9.78845 16.6465,14.88477 1.6558,1.54321 3.3226,3.07344 4.9941,4.5996 8.9933,8.21688 17.888,16.52432 25.8047,25.80469 1.8952,2.18064 3.8469,4.30256 5.8125,6.41968 5.6095,6.04721 10.9161,12.27274 16.0547,18.72876 0.8606,1.06774 1.7213,2.13545 2.582,3.20312 7.2017,8.99132 13.8936,18.30521 20.418,27.79688 0.437,0.63551 0.874,1.27102 1.3242,1.92578 10.3265,15.0925 19.735,30.73206 28.4463,46.80762 0.8153,1.50302 1.6349,3.00371 2.459,4.50195 39.6988,72.2511 58.3156,155.70734 58.083,237.76465 -0,1.35281 -0,2.70563 -0.01,4.05844 -0.038,20.13599 -0.5646,39.96771 -3.307,59.94156 -0.1663,1.2723 -0.3326,2.54461 -0.5039,3.85547 C 2009.7535,818.45764 1988.4688,881.33749 1956,939 c -0.6359,1.13284 -0.6359,1.13284 -1.2847,2.28857 -6.9532,12.31187 -14.7385,24.04329 -22.7153,35.71143 -0.7858,1.15363 -0.7858,1.15363 -1.5874,2.33057 -6.8606,10.03377 -14.1846,19.5659 -21.9565,28.90913 -2.0347,2.4598 -4.0218,4.9573 -6.0186,7.4478 -4.7266,5.7702 -9.7884,11.2049 -14.8848,16.6465 -1.5432,1.6558 -3.0734,3.3226 -4.5996,4.9941 -8.2168,8.9933 -16.5243,17.888 -25.8047,25.8047 -2.1806,1.8952 -4.3025,3.8469 -6.4196,5.8125 -6.0472,5.6095 -12.2728,10.9161 -18.7288,16.0547 -1.0677,0.8606 -2.1354,1.7213 -3.2031,2.582 -8.9913,7.2017 -18.3052,13.8936 -27.7969,20.418 -0.9533,0.6555 -0.9533,0.6555 -1.9258,1.3242 -15.0925,10.3265 -30.732,19.735 -46.8076,28.4463 -1.503,0.8153 -3.0037,1.6349 -4.5019,2.459 -55.7888,30.6534 -119.5311,49.125 -182.7647,55.7705 -1.3492,0.1465 -1.3492,0.1465 -2.7256,0.2959 -21.3466,2.2379 -42.8326,2.3318 -64.2744,2.7041 1.245,0.2517 2.49,0.5034 3.7727,0.7627 4.6666,0.9458 9.3309,1.9027 13.9946,2.8628 2.0098,0.4122 4.0202,0.8214 6.0313,1.2275 35.5325,7.1824 35.5325,7.1824 46.7014,22.647 8.0009,13.3348 8.8388,25.9703 5.6018,40.876 -0.2042,0.9834 -0.4084,1.9668 -0.6188,2.98 -0.6805,3.2638 -1.3767,6.5241 -2.0728,9.7846 -0.493,2.3486 -0.985,4.6973 -1.4761,7.0463 -1.1945,5.7014 -2.399,11.4007 -3.608,17.099 -1.4174,6.6831 -2.8221,13.3687 -4.226,20.0546 -2.3493,11.1868 -4.706,22.372 -7.0685,33.5559 -3.4781,16.4654 -6.9368,32.9348 -10.3874,49.406 -16.2745,77.6793 -16.2745,77.6793 -23.1012,109.6078 -0.1626,0.7607 -0.3252,1.5214 -0.4927,2.3051 -1.5604,7.2998 -3.1258,14.5984 -4.7017,21.8948 -0.237,1.1025 -0.474,2.2049 -0.7182,3.3408 -0.4262,1.9825 -0.8547,3.9644 -1.2864,5.9457 -0.1806,0.8421 -0.3613,1.6841 -0.5474,2.5516 -0.1555,0.7181 -0.311,1.4362 -0.4713,2.176 -0.4107,2.0511 -0.4107,2.0511 -0.3253,4.8758 2.1849,1.4689 4.3228,2.7405 6.625,4 10.9101,6.2511 20.7686,13.7992 29.375,23 0.7876,0.7863 1.5752,1.5727 2.3867,2.3828 29.4624,29.5064 46.6816,69.7475 46.9085,111.4837 0.011,1.4372 0.032,2.8745 0.062,4.3115 0.1834,8.8335 -0.4105,17.2798 -1.9849,25.979 -0.175,0.9846 -0.3501,1.9692 -0.5304,2.9837 -2.3405,12.9242 -5.0629,25.7728 -7.7693,38.6242 -0.7643,3.6339 -1.5241,7.2687 -2.2845,10.9035 -1.4369,6.8657 -2.8778,13.7305 -4.3202,20.595 -1.6288,7.7528 -3.2531,15.5065 -4.877,23.2603 -4.8511,23.1614 -9.7112,46.3208 -14.5904,69.4763 -3.4432,1.1493 -5.8718,0.8444 -9.4024,0.1221 -1.0971,-0.22 -2.1942,-0.44 -3.3246,-0.6667 -1.1994,-0.2498 -2.3988,-0.4996 -3.6346,-0.7569 -1.2673,-0.2568 -2.5346,-0.5136 -3.8402,-0.7781 -3.4799,-0.7053 -6.9574,-1.4214 -10.4346,-2.1394 -3.6561,-0.753 -7.3141,-1.4962 -10.972,-2.2405 -6.9485,-1.4156 -13.8952,-2.84 -20.8413,-4.2676 -7.8289,-1.6086 -15.6599,-3.2067 -23.4911,-4.8041 -15.9189,-3.2478 -31.8364,-6.5025 -47.7478,-9.7872 -3.0887,-0.6358 -6.1786,-1.2653 -9.2689,-1.8932 -1.7185,-0.3528 -3.4371,-0.7059 -5.1555,-1.0592 -1.1199,-0.2247 -1.1199,-0.2247 -2.2624,-0.4539 -2.7756,-0.5752 -5.4004,-1.184 -8.0299,-2.255 -2.5638,-1.0081 -4.9776,-1.6348 -7.6722,-2.1935 -1.0042,-0.2106 -2.0083,-0.4212 -3.0429,-0.6381 -1.0951,-0.2248 -2.1903,-0.4496 -3.3186,-0.6811 -1.168,-0.2436 -2.336,-0.4871 -3.5395,-0.7381 -3.2293,-0.6724 -6.4594,-1.3408 -9.6898,-2.0075 -3.462,-0.7155 -6.9229,-1.4365 -10.3839,-2.1569 -5.9704,-1.242 -11.9413,-2.4808 -17.9128,-3.7176 -9.5045,-1.9687 -19.0077,-3.9441 -28.5106,-5.9209 -1.6099,-0.3349 -3.2198,-0.6698 -4.8298,-1.0047 -2.424,-0.5042 -4.8481,-1.0085 -7.2722,-1.5127 -4.8924,-1.0178 -9.7848,-2.035 -14.6773,-3.0518 -30.0072,-6.2367 -60.0034,-12.5243 -89.9951,-18.8349 -8.3391,-1.7544 -16.6783,-3.5087 -25.0175,-5.2626 -2.4364,-0.5125 -4.8729,-1.025 -7.3093,-1.5375 -19.606,-4.1239 -39.215,-8.2338 -58.8251,-12.3381 -5.8438,-1.2231 -11.6874,-2.4466 -17.531,-3.6704 -0.8211,-0.172 -1.6422,-0.3439 -2.4882,-0.5211 -3.3066,-0.6925 -6.6131,-1.385 -9.9196,-2.0775 -9.7387,-2.0397 -19.4776,-4.0778 -29.2171,-6.1134 -6.0826,-1.2715 -12.1648,-2.5448 -18.2467,-3.8195 -3.5309,-0.7399 -7.0619,-1.479 -10.5934,-2.2158 -3.8569,-0.8047 -7.7129,-1.6134 -11.5689,-2.4224 -1.1253,-0.2341 -2.2507,-0.4682 -3.4101,-0.7094 -5.2761,-1.1104 -10.46525,-2.301 -15.6231,-3.8748 0.6935,-7.7248 2.17119,-15.1841 3.77222,-22.7678 0.28632,-1.3712 0.57229,-2.7424 0.85792,-4.1137 0.7732,-3.7064 1.55174,-7.4116 2.33154,-11.1165 0.65492,-3.1145 1.30712,-6.2294 1.95942,-9.3444 1.5436,-7.3723 3.0914,-14.7436 4.6421,-22.1144 1.5861,-7.5393 3.1659,-15.0799 4.7423,-22.6212 1.3631,-6.5201 2.7299,-13.0395 4.0996,-19.5582 0.8137,-3.8724 1.6262,-7.745 2.4352,-11.6183 2.951,-14.1202 5.9267,-28.2288 9.3933,-42.2335 0.2306,-0.9375 0.4612,-1.875 0.6987,-2.8409 10.7084,-42.2256 38.6083,-77.9282 75.7747,-100.2219 C 1121.0923,1500.3503 1143.4961,1490 1164,1490 c -0.042,-1.2616 -0.084,-2.5232 -0.1279,-3.8231 0.01,-5.5139 1.016,-10.6341 2.1745,-16.008 0.2208,-1.0593 0.4416,-2.1186 0.669,-3.21 0.7412,-3.5455 1.4953,-7.088 2.2492,-10.6308 0.5386,-2.5632 1.0763,-5.1266 1.6132,-7.6901 1.3149,-6.2703 2.6392,-12.5385 3.9667,-18.806 1.5578,-7.3568 3.1062,-14.7155 4.6539,-22.0743 2.1389,-10.1695 4.2799,-20.3385 6.426,-30.5065 4.6012,-21.8014 9.1744,-43.6084 13.7298,-65.4194 2.4423,-11.6929 4.8891,-23.3847 7.3363,-35.0765 1.8355,-8.77 3.6693,-17.5404 5.499,-26.3116 1.5665,-7.5093 3.1374,-15.0176 4.7138,-22.5249 0.808,-3.8488 1.6141,-7.698 2.4147,-11.5484 0.7379,-3.5487 1.4815,-7.0961 2.2296,-10.6427 0.3946,-1.8779 0.7832,-3.757 1.1715,-5.6362 3.5617,-16.8065 7.7959,-30.6522 22.2807,-41.0915 15.8502,-9.6277 30.8898,-6.528 48,-3 1.9748,0.3901 3.9501,0.7782 5.9258,1.1641 4.6964,0.9217 9.3865,1.8706 14.0742,2.8359 -0.8635,-0.3811 -1.727,-0.7622 -2.6167,-1.1548 -32.4548,-14.3623 -63.0584,-30.7989 -92.3833,-50.8452 -0.7208,-0.4911 -1.4415,-0.9823 -2.1841,-1.4883 -8.8006,-6.0219 -17.2745,-12.3148 -25.4648,-19.1482 -3.6559,-3.044 -7.3411,-5.801 -11.3511,-8.3635 -0.2296,0.5752 -0.4592,1.1503 -0.6958,1.7429 -13.0939,32.5877 -28.5838,64.131 -48.3042,93.2571 -0.4335,0.6466 -0.8669,1.2933 -1.3135,1.9595 -10.0009,14.9051 -20.4119,29.5864 -32.1904,43.146 -2.3177,2.6876 -4.5369,5.4301 -6.7461,8.207 -9.6234,11.7713 -20.4639,22.4918 -31.1875,33.25 -0.9232,0.9279 -1.8464,1.8558 -2.7976,2.8118 -5.0953,5.0832 -10.2873,9.9588 -15.7649,14.6257 -1.0832,0.9492 -2.1653,1.8996 -3.2461,2.8516 -8.9432,7.8009 -18.2338,15.0666 -27.7539,22.1484 -0.7061,0.5271 -1.4122,1.0541 -2.1397,1.5972 -44.18832,32.8531 -92.67424,57.922 -144.8603,75.4028 -1.05832,0.3555 -2.11664,0.7109 -3.20703,1.0771 -13.29467,4.4082 -26.73159,8.0186 -40.35547,11.2354 -0.69708,0.1653 -1.39416,0.3305 -2.11237,0.5008 -10.38087,2.4446 -20.80812,4.4234 -31.32513,6.1867 0.94055,0.01 0.94055,0.01 1.9001,0.011 6.57118,0.042 13.14168,0.1116 19.71245,0.1965 2.44687,0.028 4.89383,0.049 7.34082,0.063 3.53293,0.022 7.0648,0.068 10.59741,0.1196 1.08066,0 2.16133,0 3.27474,0 12.25013,0.2323 22.08388,4.3966 31.17448,12.6057 9.47174,10.4888 12.611,21.1694 12.51898,35.0916 0.007,1.2753 0.015,2.5506 0.0227,3.8645 0.0201,3.5098 0.0158,7.0192 0.007,10.5289 -0.005,3.7961 0.0132,7.5921 0.0284,11.3881 0.0233,6.5669 0.0321,13.1337 0.0309,19.7007 -0.002,9.4945 0.0187,18.9889 0.0444,28.4834 0.041,15.4063 0.0644,30.8126 0.0765,46.2189 0.0118,14.9607 0.032,29.9212 0.0635,44.8819 0.003,1.3846 0.003,1.3846 0.006,2.7972 0.01,4.6311 0.0197,9.2621 0.0297,13.8932 0.0828,38.3839 0.13679,76.7677 0.17195,115.1516 0.51899,0.1998 1.03797,0.3996 1.57269,0.6055 2.37189,0.9144 4.74274,1.8314 7.11359,2.7485 0.81646,0.3143 1.63291,0.6286 2.47411,0.9524 5.37637,2.0825 10.59699,4.2823 15.65211,7.0686 0.69174,0.3745 1.38349,0.7489 2.09619,1.1348 6.70279,3.7013 12.96199,7.8952 19.09131,12.4902 0.88559,0.6613 1.77117,1.3226 2.68359,2.0039 19.93084,15.6071 34.81505,34.5809 46.31641,56.9961 0.73477,1.4077 0.73477,1.4077 1.48438,2.8438 8.90918,18.2811 14.72299,39.6236 14.63587,59.9897 8.6e-4,0.746 0.002,1.4919 0.003,2.2605 0.002,2.4765 -0.004,4.9529 -0.009,7.4294 -2.9e-4,1.7844 -1.3e-4,3.5689 4.4e-4,5.3533 2.8e-4,4.8279 -0.006,9.6557 -0.0126,14.4836 -0.006,5.0515 -0.007,10.1031 -0.008,15.1546 -0.003,9.5585 -0.0113,19.117 -0.0214,28.6755 -0.0112,10.8851 -0.0167,21.7702 -0.0217,32.6553 -0.0104,22.3848 -0.0282,44.7695 -0.0503,67.1543 -7.59,0 -15.18,0 -23,0 0,64.02 0,128.04 0,194 31.68,0 63.35998,0 95.99998,0 0,-66.33 0,-132.66 0,-201 37.95,0 75.9,0 115,0 0,66.33 0,132.66 0,201 31.35,0 62.7,0 95,0 0,-66.33 0,-132.66 0,-201 37.95,0 75.9,0 115,0 0,66.33 0,132.66 0,201 31.35,0 62.7,0 95,0 0,-66.33 0,-132.66 0,-201 37.95,0 75.9,0 115,0 0,66.33 0,132.66 0,201 24.42,0 48.84,0 74,0 0,34.32 0,68.64 0,104 -431.64,0 -863.27998,0 -1307.99998,0 0,-34.32 0,-68.64 0,-104 23.43,0 46.86,0 71,0 0,-64.02 0,-128.04 0,-194 -8.25,0 -16.5,0 -25,0 -0.07,-23.2886 -0.1231,-46.5771 -0.1554,-69.8658 -0.015,-10.8149 -0.036,-21.6298 -0.071,-32.4447 -0.03,-9.4337 -0.049,-18.8673 -0.056,-28.3009 0,-4.9884 -0.013,-9.9767 -0.035,-14.965 -0.021,-4.7097 -0.027,-9.4192 -0.022,-14.129 -8e-4,-1.7147 -0.01,-3.4293 -0.018,-5.144 -0.095,-14.7504 1.5038,-29.128 5.6701,-43.3381 0.2124,-0.7379 0.4247,-1.4758 0.6436,-2.2361 5.5399,-18.7044 14.3519,-35.9802 26.0439,-51.5764 0.6613,-0.8856 1.3226,-1.7712 2.0039,-2.6836 18.8733,-24.1019 43.4805,-42.1639 72.15577,-52.8811 0.71945,-0.2691 1.43889,-0.5382 2.18014,-0.8154 0.54786,-0.2046 1.09573,-0.4091 1.66019,-0.6199 6e-4,-0.6539 0.001,-1.3078 0.002,-1.9815 0.0359,-38.7719 0.0926,-77.5437 0.17611,-116.3155 0.01,-4.6574 0.0199,-9.3148 0.0296,-13.9723 0.003,-1.3908 0.003,-1.3908 0.006,-2.8097 0.031,-15.0046 0.048,-30.0092 0.0598,-45.0138 0.0124,-15.401 0.0399,-30.802 0.0814,-46.203 0.0251,-9.5 0.0385,-18.9998 0.0368,-28.4998 -3e-5,-6.5183 0.0146,-13.0365 0.0407,-19.5547 0.0146,-3.7583 0.0229,-7.5163 0.0136,-11.2747 -0.01,-4.0821 0.0113,-8.1634 0.0352,-12.2454 -0.0116,-1.7671 -0.0116,-1.7671 -0.0235,-3.5699 0.12898,-12.4526 4.18966,-22.3099 12.5425,-31.5597 11.35712,-10.2558 22.84177,-12.6007 37.73047,-12.6094 1.48645,-0.015 2.97289,-0.032 4.4593,-0.05 3.87474,-0.043 7.74926,-0.064 11.62419,-0.079 3.96905,-0.02 7.93786,-0.062 11.90674,-0.1016 7.7597,-0.075 15.5193,-0.1255 23.2793,-0.1602 -0.7071,-0.1328 -1.4142,-0.2656 -2.14273,-0.4025 -26.98106,-5.0837 -26.98106,-5.0837 -39.23227,-8.16 -0.64401,-0.1612 -1.28802,-0.3225 -1.95154,-0.4886 -17.19962,-4.3434 -33.97773,-9.9811 -50.67346,-15.9489 -1.23702,-0.4418 -2.47403,-0.8837 -3.74854,-1.3389 -35.02746,-12.7169 -69.83186,-29.9569 -100.39206,-51.3701 -2.1462,-1.4901 -4.314,-2.9458 -6.4844,-4.4004 -9.791,-6.5835 -19.227,-13.4417 -28.375,-20.8906 -1.3922,-1.1196 -1.3922,-1.1196 -2.8125,-2.2617 -16.4883,-13.3489 -32.0439,-27.5153 -47.0625,-42.4883 -0.4985,-0.4958 -0.9969,-0.9916 -1.5105,-1.5023 -5.759,-5.7356 -11.3489,-11.5528 -16.6145,-17.7477 -0.9491,-1.0833 -1.8995,-2.1654 -2.8516,-3.2461 -7.8009,-8.9432 -15.0666,-18.2338 -22.1484,-27.7539 -0.7906,-1.0591 -0.7906,-1.0591 -1.5972,-2.1396 -32.8531,-44.1884 -57.922,-92.6743 -75.4028,-144.8604 -0.3555,-1.0583 -0.7109,-2.1166 -1.0771,-3.207 -14.8821,-44.8838 -23.9511,-93.18359 -24.126,-140.50003 -0.011,-1.90778 -0.011,-1.90778 -0.021,-3.8541 -0.019,-4.08379 -0.024,-8.16753 -0.026,-12.25137 -6e-4,-0.69491 0,-1.38981 0,-2.10578 -0.013,-20.85299 0.3772,-41.39219 3.2518,-62.08172 0.293,-2.29166 0.586,-4.58333 0.8789,-6.875 9.9646,-74.61739 36.8312,-148.66479 79.1211,-211.125 0.4334,-0.64663 0.8669,-1.29325 1.3135,-1.95947 10.0009,-14.90515 20.4119,-29.58643 32.1904,-43.146 2.3177,-2.68767 4.5369,-5.43011 6.7461,-8.20703 9.6234,-11.77133 20.4639,-22.49175 31.1875,-33.25 0.9232,-0.92788 1.8464,-1.85577 2.7976,-2.81177 5.0953,-5.08326 10.2873,-9.95884 15.7649,-14.62573 1.0832,-0.94918 2.1653,-1.89965 3.2461,-2.85156 8.9432,-7.80098 18.2338,-15.06664 27.7539,-22.14844 0.7061,-0.52707 1.4122,-1.05413 2.1396,-1.59717 44.1884,-32.8531 92.6743,-57.92201 144.8604,-75.40283 1.05832,-0.35546 2.11664,-0.71092 3.20703,-1.07715 44.88373,-14.88206 93.18356,-23.95103 140.5,-24.12598 1.27185,-0.007 2.5437,-0.0139 3.8541,-0.0211 4.08379,-0.0193 8.16753,-0.0242 12.25137,-0.0258 0.69491,-5.9e-4 1.38981,-10e-4 2.10578,-0.002 20.85299,-0.0125 41.39219,0.37722 62.08172,3.25179 2.29166,0.29299 4.58333,0.58596 6.875,0.87891 74.61739,9.9646 148.66479,36.83114 211.125,79.12109 0.64663,0.43345 1.29325,0.86689 1.95947,1.31348 15.98012,10.72219 31.583,21.96805 46.0405,34.68652 3.0194,-5.88239 5.6897,-11.84334 8.25,-17.9375 7.3406,-17.23948 15.5634,-33.72488 24.75,-50.0625 0.4254,-0.75813 0.8508,-1.51626 1.2891,-2.29736 6.9519,-12.30877 14.736,-24.03732 22.7109,-35.70264 0.5239,-0.76909 1.0477,-1.53817 1.5874,-2.33057 6.8606,-10.03377 14.1846,-19.5659 21.9566,-28.90918 2.0346,-2.45974 4.0218,-4.9572 6.0185,-7.44775 4.7266,-5.77023 9.7885,-11.20487 14.8848,-16.64648 1.5432,-1.65581 3.0734,-3.32263 4.5996,-4.99415 8.2169,-8.9933 16.5243,-17.88796 25.8047,-25.80468 2.1806,-1.89517 4.3025,-3.84688 6.4197,-5.8125 6.0472,-5.60945 12.2727,-10.91605 18.7287,-16.05469 1.0678,-0.86064 2.1355,-1.72132 3.2032,-2.58203 8.9913,-7.20163 18.3052,-13.89356 27.7968,-20.41797 0.6355,-0.43699 1.271,-0.87398 1.9258,-1.32422 15.0925,-10.32644 30.7321,-19.73495 46.8076,-28.44629 1.503,-0.8153 3.0037,-1.63492 4.502,-2.45898 C 1343.4864,191.07175 1426.9427,172.45488 1509,172.6875 Z M 545,2064 c 0,64.02 0,128.04 0,194 30.03,0 60.06,0 91,0 0,-64.02 0,-128.04 0,-194 -30.03,0 -60.06,0 -91,0 z m 206,0 c 0,64.02 0,128.04 0,194 31.68,0 63.36,0 96,0 0,-64.02 0,-128.04 0,-194 -31.68,0 -63.36,0 -96,0 z"
     fill="#484848"
     id="path1" />
  <path
     d="m 757.94824,390.62842 c 2.60149,0.31676 5.20291,0.60566 7.80957,0.87549 8.90549,0.98261 17.6159,2.67472 26.37891,4.5 2.9549,0.61428 5.909,1.19599 8.88281,1.71094 C 862.72802,408.45505 923.74633,434.86604 976,469 c 1.59135,1.02674 1.59135,1.02674 3.21484,2.07422 14.29884,9.35603 27.90836,19.58467 41.04986,30.49463 1.5369,1.26753 3.0919,2.51314 4.6494,3.75537 7.413,5.91512 14.2732,12.35567 21.1587,18.86621 1.9038,1.78757 3.8238,3.5556 5.7514,5.31738 5.4836,5.01708 10.846,9.9589 15.6133,15.67969 1.7162,1.99079 3.5499,3.7964 5.4375,5.625 3.9683,3.90706 7.4275,8.13269 10.9102,12.47266 1.9863,2.43477 4.0356,4.76873 6.1523,7.08984 67.1559,74.95547 106.435,179.61328 115.9408,353.96234 -0.5487,8.56533 -1.4685,17.09198 -2.5067,25.6109 -0.3168,2.6015 -0.6057,5.20291 -0.8755,7.80957 -0.9826,8.9055 -2.6747,17.6159 -4.5,26.37891 -0.6143,2.9549 -1.196,5.909 -1.7109,8.88281 C 1185.545,1054.728 1159.134,1115.7463 1125,1168 c -0.6845,1.0609 -1.369,2.1218 -2.0742,3.2148 -9.356,14.2989 -19.5847,27.9084 -30.4947,41.0499 -1.2675,1.5369 -2.5131,3.0919 -3.7553,4.6494 -5.9151,7.413 -12.3557,14.2732 -18.8662,21.1587 -1.7876,1.9038 -3.5556,3.8238 -5.3174,5.7514 -5.0171,5.4836 -9.9589,10.846 -15.6797,15.6133 -1.9908,1.7162 -3.7964,3.5499 -5.625,5.4375 -3.9071,3.9683 -8.1327,7.4275 -12.4727,10.9102 -2.4347,1.9863 -4.7687,4.0356 -7.0898,6.1523 -21.2585,19.0464 -46.05248,34.7039 -70.625,49.0625 -0.70899,0.4172 -1.41797,0.8343 -2.14844,1.2642 C 916.91284,1352.1186 880.51855,1366.5471 843,1378 c -0.96696,0.3013 -1.93392,0.6026 -2.93018,0.9131 -34.29504,10.6595 -70.72178,16.5555 -106.56982,18.2119 -0.87807,0.042 -1.75613,0.084 -2.6608,0.1273 -13.95762,0.663 -27.8655,1.0592 -41.8392,0.7477 -1.12874,-0.019 -2.25747,-0.039 -3.42041,-0.059 -15.73022,-0.2877 -31.13079,-1.3082 -46.70313,-3.543 -2.88643,-0.3998 -5.77488,-0.7503 -8.66943,-1.0859 -12.724,-1.4971 -25.0958,-3.8167 -37.57324,-6.7114 -2.40707,-0.5494 -4.81754,-1.0664 -7.23535,-1.5659 -73.98313,-15.3942 -145.70633,-52.4887 -203.66309,-100.604 -1.53696,-1.2676 -3.09193,-2.5132 -4.64941,-3.7554 -7.41304,-5.9151 -14.27328,-12.3557 -21.1587,-18.8662 -1.90381,-1.7876 -3.82379,-3.5556 -5.75146,-5.3174 -5.48358,-5.0171 -10.84596,-9.9589 -15.61328,-15.6797 -1.7162,-1.9908 -3.54991,-3.7964 -5.4375,-5.625 -3.96835,-3.9071 -7.42747,-8.1327 -10.91016,-12.4726 -1.98635,-2.4348 -4.03566,-4.7688 -6.15234,-7.0899 -19.04643,-21.2585 -34.70392,-46.0525 -49.0625,-70.625 -0.62576,-1.0635 -0.62576,-1.0635 -1.26416,-2.1484 -19.85448,-33.9388 -34.28298,-70.3331 -45.73584,-107.8516 -0.30132,-0.967 -0.60264,-1.9339 -0.91309,-2.9302 -10.65952,-34.29501 -16.55552,-70.72176 -18.21191,-106.5698 -0.042,-0.87806 -0.084,-1.75612 -0.12735,-2.6608 -0.66299,-13.95761 -1.05915,-27.8655 -0.74765,-41.8392 0.0193,-1.12873 0.0387,-2.25747 0.0586,-3.42041 0.28774,-15.73022 1.30819,-31.13079 3.54297,-46.70312 0.39982,-2.88644 0.75028,-5.77488 1.08594,-8.66944 1.49713,-12.724 3.81667,-25.09579 6.71142,-37.57324 0.54934,-2.40707 1.06639,-4.81753 1.56592,-7.23535 15.39419,-73.98312 52.48867,-145.70632 100.60401,-203.66309 1.26753,-1.53695 2.51314,-3.09193 3.75537,-4.64941 5.38514,-6.74885 11.19127,-13.03418 17.11718,-19.30469 2.28294,-2.4157 4.54195,-4.84921 6.77344,-7.3125 5.27812,-5.82204 10.62823,-11.31488 16.5586,-16.49219 1.98065,-1.75826 3.82762,-3.5705 5.66406,-5.47656 3.67466,-3.74383 7.72883,-6.96531 11.8125,-10.25 2.44441,-1.99997 4.79182,-4.06019 7.125,-6.1875 74.95546,-67.15547 179.61327,-106.43464 379.57323,-113.43368 z"
     fill="#8eaadc"
     id="path2" />
  <path
     d="m 1596,187 c 1.2116,0.2106 2.4231,0.4212 3.6714,0.63818 13.1522,2.31437 26.1245,5.06294 38.9761,8.69825 2.4914,0.70274 4.9879,1.38477 7.4853,2.06591 67.89,18.71182 131.9277,52.33696 185.8672,97.59766 0.6136,0.5145 1.2272,1.02899 1.8594,1.55908 1.8017,1.51636 3.5978,3.03902 5.3906,4.56592 0.7585,0.64497 0.7585,0.64497 1.5322,1.30298 9.9597,8.56768 19.4509,17.61847 28.7371,26.906 1.6724,1.67023 3.3527,3.33224 5.0334,4.99414 5.8635,5.83371 11.3678,11.74624 16.4956,18.24659 2.0363,2.53044 4.1833,4.91711 6.3892,7.30029 18.8238,20.74197 34.2563,45.12899 48.5625,69.125 0.4663,0.77489 0.9326,1.54978 1.4131,2.34814 16.6653,27.81174 31.5177,58.26685 40.6103,89.43702 0.8631,2.84108 1.8672,5.49093 3.0391,8.21484 2.0421,4.86651 3.2683,9.90185 4.4553,15.0293 0.8008,3.42156 1.7163,6.71912 2.8885,10.0332 2.2112,6.48833 3.5824,13.18403 5.0312,19.875 0.1525,0.69793 0.3049,1.39585 0.462,2.11493 2.7659,12.71513 4.9443,25.47208 6.7348,38.36261 0.3018,2.13349 0.6361,4.26237 0.979,6.38965 7.8042,48.73166 4.9505,101.76258 -3.6133,150.19531 -0.3159,1.81734 -0.3159,1.81734 -0.6382,3.67139 -2.3143,13.15219 -5.0629,26.12454 -8.6982,38.97607 -0.7028,2.4914 -1.3848,4.98797 -2.0659,7.48535 C 1977.8858,890.02279 1944.2607,954.0605 1899,1008 c -0.5145,0.6136 -1.029,1.2272 -1.5591,1.8594 -1.5163,1.8017 -3.039,3.5978 -4.5659,5.3906 -0.43,0.5056 -0.86,1.0113 -1.303,1.5322 -8.5677,9.9597 -17.6184,19.4509 -26.906,28.7371 -1.6702,1.6724 -3.3322,3.3527 -4.9941,5.0334 -5.8337,5.8635 -11.7463,11.3678 -18.2466,16.4956 -2.5304,2.0363 -4.9171,4.1833 -7.3003,6.3892 -25.1582,22.8316 -55.3793,41.3681 -85.125,57.5625 -0.7712,0.4225 -1.5424,0.845 -2.3369,1.2803 -20.8925,11.3906 -42.5594,20.5945 -64.9116,28.7085 -2.5681,0.9438 -5.1202,1.9201 -7.6695,2.9135 -11.1563,4.3136 -22.4443,7.4726 -34.0534,10.3296 -3.4409,0.8727 -6.8595,1.8165 -10.2825,2.7564 -7.584,2.0291 -15.2102,3.597 -22.9336,5.0117 -0.689,0.1263 -1.378,0.2526 -2.088,0.3827 -4.2469,0.7753 -8.497,1.531 -12.75,2.2723 -1.8325,0.3202 -3.664,0.6458 -5.4955,0.9719 -47.4988,8.2851 -100.0713,8.8395 -147.6108,0.8502 -3.3308,-0.5541 -6.6657,-1.0797 -10.001,-1.606 -21.3293,-3.4051 -41.9333,-7.716 -62.5352,-14.2227 -3.6488,-1.1507 -7.3092,-2.1929 -11.0078,-3.1718 -3.8244,-1.028 -7.4973,-2.2066 -11.1826,-3.6499 -2.5733,-0.9933 -5.1714,-1.9023 -7.7744,-2.815 -53.4746,-19.0174 -104.4213,-47.9864 -147.7407,-84.6997 -1.7977,-1.4983 -1.7977,-1.4983 -4.6382,-3.2456 C 1182,1071 1182,1071 1181.9219,1068.0859 c 1.3419,-5.925 3.4195,-11.7009 5.3281,-17.4609 0.8274,-2.538 1.6496,-5.0777 2.4727,-7.6172 0.3959,-1.2178 0.7918,-2.4357 1.1997,-3.6904 4.811,-14.8103 8.3022,-29.7082 11.3974,-44.97707 0.5863,-2.87911 1.1948,-5.75228 1.8091,-8.62549 5.2541,-25.57395 7.4917,-52.6288 7.8711,-78.71484 0.015,-0.97373 0.03,-1.94745 0.046,-2.95068 0.3272,-25.52725 0.1996,-51.46316 -3.6938,-76.73682 -0.4216,-2.76922 -0.8257,-5.54085 -1.231,-8.3125 -1.831,-12.37767 -3.8604,-24.65139 -6.6343,-36.85449 -0.4719,-2.08 -0.9276,-4.16304 -1.3813,-6.24707 C 1182.7117,702.00236 1147.3447,631.80384 1100,573 c -0.7812,-0.97582 -1.5623,-1.95164 -2.3672,-2.95703 -4.3528,-5.38455 -8.8546,-10.5948 -13.5195,-15.71094 -1.8871,-2.08238 -3.7239,-4.19706 -5.5508,-6.33203 -4.2728,-4.91029 -8.9291,-9.43361 -13.5625,-14 -2.925,-2.91508 -5.8361,-5.84344 -8.7422,-8.77734 -1.3775,-1.38677 -2.7551,-2.77349 -4.1328,-4.16016 -0.6819,-0.69029 -1.3638,-1.38059 -2.0664,-2.0918 -4.1923,-4.21222 -8.4947,-8.16348 -13.0586,-11.9707 8.4708,-50.35963 50.8889,-105.73153 83,-144 0.5145,-0.61359 1.029,-1.22719 1.5591,-1.85938 1.5163,-1.80172 3.039,-3.59782 4.5659,-5.39062 0.43,-0.50563 0.86,-1.01127 1.303,-1.53223 8.5677,-9.95971 17.6185,-19.45089 26.906,-28.73706 1.6702,-1.67243 3.3322,-3.35275 4.9941,-5.03344 5.8337,-5.86346 11.7463,-11.36779 18.2466,-16.49561 2.5304,-2.03628 4.9171,-4.18324 7.3003,-6.38916 20.742,-18.82383 45.129,-34.25634 69.125,-48.5625 0.7749,-0.46632 1.5498,-0.93264 2.3481,-1.41309 27.8118,-16.6653 58.2669,-31.51769 89.4371,-40.61035 2.841,-0.86302 5.4909,-1.8672 8.2148,-3.03906 4.8665,-2.04212 9.9019,-3.2683 15.0293,-4.45532 3.4216,-0.8008 6.7191,-1.71632 10.0332,-2.88843 6.4883,-2.21125 13.184,-3.5824 19.875,-5.03125 1.0469,-0.22869 1.0469,-0.22869 2.1149,-0.46201 12.7152,-2.76592 25.4721,-4.9443 38.3626,-6.73477 2.1335,-0.30185 4.2624,-0.6361 6.3897,-0.979 C 1494.5364,175.5825 1547.5673,178.43624 1596,187 Z"
     fill="#fefe01"
     id="path3" />
  <path
     d="m 1303.25,1158.25 c 1.8678,0.4057 3.7357,0.8108 5.6038,1.2156 12.4736,2.7079 24.934,5.4758 37.3923,8.2532 1.918,0.4271 3.8359,0.8542 5.7539,1.2812 1.377,0.3074 1.377,0.3074 2.7817,0.6211 8.1287,1.8054 16.0151,3.5071 24.3413,4.0271 3.3231,0.4064 6.3599,1.2398 9.5801,2.1565 8.6789,2.3982 17.4596,4.12 26.2969,5.8203 2.3242,0.4496 4.648,0.9008 6.9712,1.3556 1.4274,0.2792 2.8555,0.5555 4.2842,0.8281 4.3275,0.8438 8.5116,1.9667 12.7446,3.1913 2.4991,0.5871 5.0035,1.1521 7.5117,1.6992 0.7132,0.1557 1.4263,0.3113 2.1611,0.4717 2.3376,0.5086 4.676,1.0129 7.0147,1.5166 0.8112,0.1755 1.6224,0.3509 2.4581,0.5317 12.0282,2.5979 24.081,5.0304 36.1669,7.3433 11.115,2.1329 22.2184,4.3096 33.2857,6.6792 1.369,0.2921 2.7386,0.5809 4.109,0.866 14.6532,3.0576 28.4473,8.0763 37.2928,20.8923 7.3889,13.4255 8.3297,25.5124 5.1018,40.376 -0.3063,1.4751 -0.3063,1.4751 -0.6188,2.98 -0.6805,3.2638 -1.3767,6.5241 -2.0728,9.7846 -0.493,2.3486 -0.985,4.6973 -1.4761,7.0463 -1.1945,5.7014 -2.399,11.4007 -3.608,17.099 -1.4174,6.6831 -2.8221,13.3687 -4.226,20.0546 -2.3493,11.1868 -4.706,22.372 -7.0685,33.556 -3.4781,16.4653 -6.9368,32.9348 -10.3874,49.4059 -16.2745,77.6793 -16.2745,77.6793 -23.1012,109.6078 -0.1626,0.7607 -0.3252,1.5214 -0.4927,2.3051 -1.5604,7.2998 -3.1258,14.5984 -4.7017,21.8948 -0.237,1.1025 -0.474,2.2049 -0.7181,3.3408 -0.4263,1.9825 -0.8548,3.9644 -1.2865,5.9457 -0.2709,1.2631 -0.2709,1.2631 -0.5474,2.5516 -0.1555,0.7181 -0.3111,1.4362 -0.4713,2.176 -0.4107,2.0512 -0.4107,2.0512 -0.3253,4.8758 2.1849,1.4689 4.3228,2.7405 6.625,4 10.9101,6.2511 20.7686,13.7993 29.375,23 0.7876,0.7863 1.5752,1.5727 2.3867,2.3828 29.4624,29.5064 46.6816,69.7475 46.9085,111.4837 0.011,1.4372 0.032,2.8745 0.062,4.3115 0.1833,8.8335 -0.4105,17.2799 -1.9849,25.979 -0.175,0.9846 -0.3501,1.9692 -0.5305,2.9837 -2.3404,12.9242 -5.0628,25.7728 -7.7692,38.6242 -0.7643,3.6339 -1.5242,7.2687 -2.2845,10.9035 -1.437,6.8657 -2.8778,13.7305 -4.3202,20.595 -1.6289,7.7528 -3.2531,15.5065 -4.877,23.2603 -4.8511,23.1614 -9.7112,46.3208 -14.5904,69.4763 -3.4432,1.1493 -5.8718,0.8444 -9.4024,0.1222 -1.0971,-0.2201 -2.1942,-0.4401 -3.3246,-0.6668 -1.7991,-0.3747 -1.7991,-0.3747 -3.6346,-0.7569 -1.2673,-0.2568 -2.5346,-0.5136 -3.8403,-0.7781 -3.4798,-0.7053 -6.9573,-1.4214 -10.4346,-2.1394 -3.656,-0.753 -7.3141,-1.4962 -10.9719,-2.2405 -6.9486,-1.4156 -13.8952,-2.84 -20.8413,-4.2676 -7.8289,-1.6086 -15.6599,-3.2067 -23.4911,-4.8041 -15.9189,-3.2478 -31.8364,-6.5025 -47.7478,-9.7872 -3.0887,-0.6358 -6.1786,-1.2652 -9.2689,-1.8932 -1.7186,-0.3528 -3.4371,-0.7059 -5.1556,-1.0591 -0.7466,-0.1499 -1.4931,-0.2997 -2.2624,-0.454 -2.7755,-0.5752 -5.4004,-1.184 -8.0298,-2.2549 -2.5638,-1.0082 -4.9776,-1.6349 -7.6722,-2.1936 -1.0042,-0.2106 -2.0083,-0.4212 -3.0429,-0.6381 -1.0952,-0.2248 -2.1903,-0.4495 -3.3186,-0.6811 -1.168,-0.2436 -2.3361,-0.4871 -3.5395,-0.7381 -3.2293,-0.6724 -6.4594,-1.3408 -9.6899,-2.0075 -3.462,-0.7155 -6.9228,-1.4365 -10.3838,-2.1569 -5.9704,-1.242 -11.9414,-2.4808 -17.9128,-3.7176 -9.5046,-1.9687 -19.0077,-3.9441 -28.5106,-5.9209 -1.6099,-0.3349 -3.2199,-0.6698 -4.8298,-1.0047 -2.4241,-0.5042 -4.8481,-1.0085 -7.2722,-1.5127 -4.8924,-1.0178 -9.7848,-2.035 -14.6773,-3.0518 -30.0072,-6.2367 -60.0035,-12.5242 -89.9951,-18.8349 -8.3391,-1.7544 -16.6783,-3.5087 -25.0175,-5.2626 -2.4364,-0.5125 -4.8729,-1.025 -7.3093,-1.5375 -19.6061,-4.1239 -39.215,-8.2337 -58.8252,-12.3381 -5.8437,-1.2231 -11.6873,-2.4466 -17.5309,-3.6704 -0.8211,-0.172 -1.6423,-0.3439 -2.4882,-0.5211 -3.3066,-0.6925 -6.6131,-1.3849 -9.9196,-2.0775 -9.7387,-2.0397 -19.4776,-4.0778 -29.2172,-6.1134 -6.0825,-1.2715 -12.1648,-2.5448 -18.2467,-3.8195 -3.5308,-0.7399 -7.0618,-1.479 -10.5933,-2.2158 -3.8569,-0.8047 -7.7129,-1.6133 -11.5689,-2.4224 -1.1254,-0.2341 -2.2507,-0.4682 -3.4101,-0.7094 -5.2762,-1.1103 -10.46527,-2.301 -15.62312,-3.8748 0.6935,-7.7248 2.17119,-15.1841 3.77222,-22.7678 0.28632,-1.3712 0.57229,-2.7424 0.85792,-4.1137 0.7732,-3.7064 1.55174,-7.4116 2.33154,-11.1165 0.65494,-3.1145 1.30714,-6.2294 1.95934,-9.3444 1.5436,-7.3723 3.0915,-14.7436 4.6422,-22.1144 1.5861,-7.5393 3.1659,-15.0799 4.7423,-22.6212 1.3631,-6.5201 2.7299,-13.0395 4.0996,-19.5582 0.8137,-3.8724 1.6261,-7.745 2.4352,-11.6184 2.9509,-14.1201 5.9266,-28.2287 9.3933,-42.2334 0.2306,-0.9375 0.4612,-1.875 0.6987,-2.8409 10.7083,-42.2256 38.6083,-77.9282 75.7747,-100.2219 C 1121.0922,1500.3503 1143.4961,1490 1164,1490 c -0.042,-1.2616 -0.084,-2.5232 -0.1279,-3.8231 0.01,-5.5139 1.016,-10.6341 2.1745,-16.0079 0.3312,-1.589 0.3312,-1.589 0.669,-3.2101 0.7412,-3.5455 1.4953,-7.088 2.2492,-10.6308 0.5385,-2.5632 1.0762,-5.1266 1.6132,-7.6901 1.3149,-6.2703 2.6392,-12.5384 3.9667,-18.806 1.5578,-7.3568 3.1062,-14.7155 4.6539,-22.0743 2.1389,-10.1695 4.2798,-20.3385 6.426,-30.5065 4.6012,-21.8013 9.1744,-43.6084 13.7298,-65.4194 2.4422,-11.6929 4.8891,-23.3847 7.3363,-35.0765 1.8355,-8.77 3.6693,-17.5404 5.4989,-26.3116 1.5666,-7.5093 3.1375,-15.0176 4.7139,-22.5249 0.808,-3.8488 1.614,-7.698 2.4146,-11.5484 0.738,-3.5487 1.4816,-7.0961 2.2297,-10.6427 0.3945,-1.8779 0.7832,-3.757 1.1715,-5.6362 3.5577,-16.7877 7.7877,-30.6797 22.2807,-41.0915 18.7832,-11.1005 38.3764,-5.1153 58.25,-0.75 z"
     fill="#484848"
     id="path4" />
  <path
     d="m 366,2265 c 427.02,0 854.04,0 1294,0 0,29.7 0,59.4 0,90 -427.02,0 -854.04,0 -1294,0 0,-29.7 0,-59.4 0,-90 z"
     fill="#305498"
     id="path5" />
  <path
     d="m 1058,2057 c 37.95,0 75.9,0 115,0 0,66.33 0,132.66 0,201 31.35,0 62.7,0 95,0 0,-66.33 0,-132.66 0,-201 37.95,0 75.9,0 115,0 0,66.33 0,132.66 0,201 31.35,0 62.7,0 95,0 0,-66.33 0,-132.66 0,-201 37.95,0 75.9,0 115,0 0,66.33 0,132.66 0,201 24.42,0 48.84,0 74,0 0,34.32 0,68.64 0,104 -431.64,0 -863.28,0 -1308,0 0,-34.32 0,-68.64 0,-104 91.41,0 182.82,0 277,0 0,1.65 0,3.3 0,5 37.95,0 75.9,0 115,0 0,-1.65 0,-3.3 0,-5 31.68,0 63.36,0 96,0 0,1.65 0,3.3 0,5 37.95,0 75.9,0 115,0 0,-1.65 0,-3.3 0,-5 31.68,0 63.36,0 96,0 0,-66.33 0,-132.66 0,-201 z m -692,208 c 0,29.7 0,59.4 0,90 427.02,0 854.04,0 1294,0 0,-29.7 0,-59.4 0,-90 -427.02,0 -854.04,0 -1294,0 z"
     fill="#104862"
     id="path6" />
  <path
     d="m 775,698 c 0.84127,0.14244 1.68255,0.28488 2.54932,0.43164 24.44681,4.16646 61.09117,11.01349 76.70068,32.69336 4.85049,9.52521 5.19975,19.91133 5.0625,30.375 0.005,1.84271 0.005,1.84271 0.01,3.72266 C 859.19053,787.80947 859.19053,787.80947 851,796 c -6.68152,0.48105 -11.78827,-2.10924 -17.3125,-5.5 -30.93738,-17.93672 -65.46839,-28.68924 -101.27466,-28.6853 -2.21138,-0.002 -4.42225,-0.0204 -6.63354,-0.0393 C 703.69671,761.68607 683.26148,766.15605 664,777 c -0.94488,0.51691 -1.88977,1.03383 -2.86328,1.56641 -27.40745,15.64313 -45.1442,42.70313 -53.74609,72.54785 -4.4765,16.5978 -5.778,32.90092 -5.70313,50.01074 0.002,0.90708 0.005,1.81415 0.008,2.74872 0.16883,39.7802 10.37224,77.43567 39.30496,106.12628 24.1869,22.7964 56.8381,30.0716 89.14844,29.3164 13.33,-0.5099 25.05795,-2.8602 37.39843,-7.9141 3.10236,-1.26 6.2756,-2.3433 9.45267,-3.4023 0,-30.69 0,-61.38 0,-93 -25.77407,0.19785 -25.77407,0.19785 -51.54761,0.45044 -4.99206,0.0226 -4.99206,0.0226 -7.33125,0.0268 -1.62902,0.008 -3.258,0.0252 -4.88684,0.0507 -2.47207,0.0367 -4.94242,0.0416 -7.41472,0.0397 -0.72211,0.018 -1.44422,0.036 -2.18821,0.0545 -3.9114,-0.0402 -5.48902,-0.50483 -8.54938,-3.02691 -6.15505,-7.67236 -5.55448,-17.62849 -5.4731,-27.00929 0.0161,-2.21417 5e-5,-4.42652 -0.019,-6.64063 C 689.57339,889.35107 689.92404,881.28489 697,874 c 2.7656,-0.632 2.7656,-0.632 6.00787,-0.64165 1.23082,-0.0155 2.46164,-0.0311 3.72975,-0.0471 1.36123,0.008 2.72245,0.0168 4.08367,0.0259 1.43588,-0.008 2.87175,-0.0189 4.3076,-0.0314 3.89913,-0.0271 7.79762,-0.0223 11.69681,-0.0103 3.25775,0.007 6.51539,-10e-4 9.77314,-0.01 7.68965,-0.02 15.379,-0.0144 23.06864,0.008 7.92321,0.0223 15.8456,0.005 23.76872,-0.033 6.80871,-0.0313 13.61716,-0.0391 20.42593,-0.028 4.06367,0.006 8.12687,0.005 12.19049,-0.0193 3.8253,-0.0213 7.64945,-0.0132 11.47468,0.0171 1.39956,0.006 2.79921,0.003 4.1987,-0.0124 7.53739,-0.0738 12.98251,0.0886 18.79617,5.20379 5.80828,6.20484 7.72272,12.36653 7.74526,20.74256 0.005,0.69833 0.009,1.39665 0.0137,2.11614 0.0126,2.32805 0.011,4.65587 0.009,6.98395 0.006,1.67435 0.0128,3.3487 0.0204,5.02305 0.0177,4.54171 0.0223,9.08335 0.0236,13.62509 0.001,2.84211 0.006,5.6842 0.011,8.52631 0.0185,9.92884 0.0267,19.85763 0.0251,29.78648 -0.001,9.23171 0.0199,18.46318 0.0515,27.69483 0.0262,7.94255 0.0369,15.88495 0.0356,23.82755 -5.1e-4,4.7361 0.005,9.4719 0.0264,14.208 0.0195,4.4611 0.0194,8.9219 0.005,13.3831 -0.002,1.6281 0.002,3.2562 0.0147,4.8842 0.16388,23.4413 0.16388,23.4413 -7.81624,31.715 -9.99561,7.4824 -23.83909,10.6427 -35.68758,14.0621 -0.70012,0.2048 -1.40024,0.4096 -2.12158,0.6206 -21.081,6.0945 -42.61864,9.8159 -64.51441,11.1616 -2.45131,0.1915 -2.45131,0.1915 -5.19067,0.7276 -6.50543,1.005 -13.16293,0.7352 -19.73584,0.7402 -0.79828,7e-4 -1.59656,10e-4 -2.41904,0 C 668.7732,1108.1823 616.59977,1095.6908 577,1060 c -1.45773,-1.2299 -2.91598,-2.4592 -4.375,-3.6875 C 542.17537,1029.3859 523.57956,984.67806 519,945 c -0.10006,-0.8395 -0.20013,-1.679 -0.30322,-2.54395 -2.93265,-25.96432 -3.21364,-52.45917 0.55322,-78.33105 0.10233,-0.70977 0.20466,-1.41954 0.31009,-2.15082 C 524.69017,827.29414 538.05339,793.47217 560,766 c 1.05961,-1.36512 1.05961,-1.36512 2.14063,-2.75781 31.77135,-40.1142 80.38301,-61.39144 130.26147,-67.7251 C 719.76307,692.42804 747.88569,693.00144 775,698 Z"
     fill="#000000"
     id="path7" />
  <path
     d="m 1533.75,482.625 c 0.812,-1.2e-4 1.6241,-2.4e-4 2.4607,-3.7e-4 13.9023,0.0294 27.2204,1.1772 40.7893,4.37537 1.0108,0.23227 1.0108,0.23227 2.042,0.46924 4.0661,0.96572 8.0038,2.18295 11.958,3.53076 0.6983,0.23558 1.3967,0.47115 2.1162,0.71387 24.1204,8.2259 55.2726,20.3612 69.1104,43.32129 5.6679,14.39872 -3.796,38.92883 -9.293,52.62109 -1.6721,3.61952 -3.1794,6.73481 -6.9336,8.34375 -6.0519,-0.2049 -9.2291,-2.30379 -13.5,-6.3125 -1.2287,-1.09832 -2.4592,-2.19461 -3.6914,-3.28906 -0.6279,-0.56365 -1.2559,-1.12729 -1.9028,-1.70801 -22.5811,-20.02964 -49.7708,-35.71771 -80.5933,-36.00293 -1.0254,-0.029 -2.0509,-0.058 -3.1074,-0.0879 -10.3846,-0.0853 -19.133,2.61987 -27.1387,9.36523 -8.4794,8.35113 -13.0843,18.57792 -13.6289,30.47266 0.6038,16.32216 10.8922,29.82266 22.3242,40.64453 4.8083,4.40504 9.9195,8.39028 15.1201,12.31787 2.4132,1.82297 4.8167,3.65833 7.2198,5.49463 6.5492,5.0006 13.1056,9.9917 19.6757,14.96484 10.2464,7.78163 20.335,15.80852 29.2227,25.14063 0.825,0.825 1.65,1.65 2.5,2.5 0.825,0.825 1.65,1.65 2.5,2.5 0.7483,0.67869 0.7483,0.67869 1.5117,1.37109 13.0614,12.20892 22.4295,29.59507 27.4883,46.62891 0.2978,0.97066 0.5955,1.94133 0.9023,2.94141 7.8127,29.91847 -0.4528,63.41876 -15.3046,89.75 C 1598.7002,861.3584 1571.6269,878.48621 1540,887 c -23.4388,5.91962 -51.4777,4.88985 -75,0 -0.8633,-0.17692 -1.7267,-0.35385 -2.6162,-0.53613 -6.1805,-1.29986 -12.2919,-2.79882 -18.3838,-4.46387 -0.7478,-0.20432 -1.4956,-0.40863 -2.2661,-0.61914 C 1417.7584,874.59992 1393.8706,862.34814 1375,846 c -0.8753,-0.7425 -1.7505,-1.485 -2.6523,-2.25 -6.6655,-5.79432 -13.6698,-12.06116 -14.6133,-21.37109 0.066,-11.85986 1.9273,-22.80383 5.0781,-34.19141 0.2361,-0.87133 0.4721,-1.74265 0.7153,-2.64038 2.1442,-7.41987 4.6972,-15.22287 11.4722,-19.54712 4.1356,-0.8656 6.644,0.11611 10.125,2.25 3.9123,2.77585 7.2303,6.00747 10.5625,9.4375 24.6079,25.27787 60.6816,44.97745 96.5,45.75 15.52,-0.48208 29.35,-3.55218 41.0352,-14.47266 9.6727,-10.69317 12.7153,-23.78666 12.1562,-37.82422 C 1545.0175,766.06119 1543.74,762.28938 1541,758 c -0.4744,-0.84305 -0.9487,-1.68609 -1.4375,-2.55469 -10.682,-18.1285 -27.8431,-30.27436 -44.4102,-42.59765 C 1483.7107,704.32627 1472.4567,695.71537 1462,686 c -1.3711,-1.19202 -2.746,-2.3797 -4.125,-3.5625 C 1435.281,662.59996 1420.4646,636.05925 1417,606 c -0.6875,-10.94324 0.085,-21.37112 2.5513,-32.04102 0.4478,-1.95521 0.8541,-3.91601 1.2573,-5.88086 3.3086,-15.33245 9.7489,-29.53589 19.1914,-42.07812 0.7103,-0.94359 1.4205,-1.88719 2.1523,-2.85938 17.5312,-22.30681 42.5225,-35.26725 70.3096,-39.72827 7.0768,-0.82477 14.1711,-0.80363 21.2881,-0.78735 z"
     fill="#000000"
     id="path8" />
  <path
     d="m 1509,172.6875 c 1.3528,0.002 2.7056,0.004 4.0584,0.006 20.136,0.038 39.9678,0.56462 59.9416,3.30698 1.2723,0.16629 2.5446,0.33258 3.8555,0.50391 65.6021,8.74263 128.482,30.02732 186.1445,62.49609 0.7552,0.42394 1.5105,0.84788 2.2886,1.28467 12.3118,6.95327 24.0433,14.73852 35.7114,22.71533 0.7691,0.52384 1.5382,1.04769 2.3306,1.5874 10.0337,6.86057 19.5659,14.1846 28.9092,21.95655 2.4597,2.03466 4.9572,4.02178 7.4477,6.01855 5.7702,4.72659 11.2049,9.78845 16.6465,14.88477 1.6558,1.54321 3.3226,3.07344 4.9941,4.5996 8.9933,8.21688 17.888,16.52432 25.8047,25.80469 1.8952,2.18064 3.8469,4.30256 5.8125,6.41968 5.6095,6.04721 10.9161,12.27274 16.0547,18.72876 0.8606,1.06774 1.7213,2.13545 2.582,3.20312 7.2017,8.99132 13.8936,18.30521 20.418,27.79688 0.437,0.63551 0.874,1.27102 1.3242,1.92578 10.3265,15.0925 19.735,30.73206 28.4463,46.80762 0.8153,1.50302 1.6349,3.00371 2.459,4.50195 39.6988,72.2511 58.3156,155.70734 58.083,237.76465 -0,1.35281 -0,2.70563 -0.01,4.05844 -0.038,20.13599 -0.5646,39.96771 -3.307,59.94156 -0.1663,1.2723 -0.3326,2.54461 -0.5039,3.85547 C 2009.7535,818.45764 1988.4688,881.33749 1956,939 c -0.6359,1.13284 -0.6359,1.13284 -1.2847,2.28857 -6.9532,12.31187 -14.7385,24.04329 -22.7153,35.71143 -0.7858,1.15363 -0.7858,1.15363 -1.5874,2.33057 -6.8606,10.03377 -14.1846,19.5659 -21.9565,28.90913 -2.0347,2.4598 -4.0218,4.9573 -6.0186,7.4478 -4.7266,5.7702 -9.7884,11.2049 -14.8848,16.6465 -1.5432,1.6558 -3.0734,3.3226 -4.5996,4.9941 -8.2168,8.9933 -16.5243,17.888 -25.8047,25.8047 -2.1806,1.8952 -4.3025,3.8469 -6.4196,5.8125 -6.0472,5.6095 -12.2728,10.9161 -18.7288,16.0547 -1.0677,0.8606 -2.1354,1.7213 -3.2031,2.582 -8.9913,7.2017 -18.3052,13.8936 -27.7969,20.418 -0.9533,0.6555 -0.9533,0.6555 -1.9258,1.3242 -15.0925,10.3265 -30.732,19.735 -46.8076,28.4463 -1.503,0.8153 -3.0037,1.6349 -4.5019,2.459 -70.619,38.8019 -152.983,58.0003 -233.3272,58.3955 -1.1326,0.01 -2.2652,0.014 -3.4322,0.021 -20.6689,0.045 -39.953,-2.6244 -59.9579,-7.6562 -5.1304,-1.2832 -10.3121,-2.2855 -15.5047,-3.2854 -0.8391,-0.2324 -1.6782,-0.4648 -2.5427,-0.7043 -0.33,-0.66 -0.66,-1.32 -1,-2 3.2505,0.3076 6.5003,0.6219 9.75,0.9375 0.9204,0.087 1.8408,0.174 2.7891,0.2637 0.8894,0.087 1.7789,0.174 2.6953,0.2636 0.8169,0.079 1.6339,0.1571 2.4756,0.2381 2.1659,0.281 4.1743,0.7678 6.29,1.2971 45.6384,6.0596 94.8282,2.9872 140,-5 1.2116,-0.2106 2.4231,-0.4212 3.6714,-0.6382 13.1522,-2.3143 26.1245,-5.0629 38.9761,-8.6982 2.4914,-0.7028 4.9879,-1.3848 7.4853,-2.0659 67.89,-18.712 131.9277,-52.3371 185.8672,-97.5978 0.6136,-0.5145 1.2272,-1.029 1.8594,-1.5591 1.8017,-1.5163 3.5978,-3.039 5.3906,-4.5659 0.7585,-0.645 0.7585,-0.645 1.5322,-1.303 9.8058,-8.4352 19.167,-17.3345 28.3098,-26.4787 1.6001,-1.5978 3.2079,-3.1874 4.8162,-4.7769 5.7395,-5.7091 11.0994,-11.5148 16.1226,-17.8735 2.0435,-2.535 4.1954,-4.9287 6.4067,-7.3179 22.8316,-25.15818 41.3681,-55.37932 57.5625,-85.125 0.4225,-0.77118 0.845,-1.54236 1.2803,-2.33691 11.3906,-20.89246 20.5945,-42.55941 28.7085,-64.91163 0.9438,-2.56806 1.9201,-5.1202 2.9135,-7.66943 4.3136,-11.15633 7.4726,-22.44429 10.3296,-34.05347 0.8727,-3.44084 1.8165,-6.85941 2.7564,-10.28247 2.0291,-7.58403 3.597,-15.21023 5.0117,-22.93359 0.1263,-0.68902 0.2526,-1.37805 0.3827,-2.08795 0.7753,-4.24694 1.531,-8.49701 2.2723,-12.75 0.3202,-1.83252 0.6458,-3.66408 0.972,-5.49555 8.0939,-46.40282 8.8686,-97.97751 1.373,-144.479 -0.259,-1.83038 -0.5152,-3.66115 -0.7695,-5.49219 C 2005.6954,587.59592 2000.3825,563.05938 1993,539 c -0.3865,-1.29395 -0.772,-2.5882 -1.1562,-3.88281 -1.5041,-5.0022 -3.1199,-9.90436 -4.9754,-14.78882 -0.9856,-2.64255 -1.9214,-5.30042 -2.8567,-7.96118 C 1964.6883,458.0322 1935.0487,407.1528 1898,363 c -0.7717,-0.92039 -0.7717,-0.92039 -1.5591,-1.85938 -1.5163,-1.80172 -3.039,-3.59782 -4.5659,-5.39062 -0.43,-0.50563 -0.86,-1.01127 -1.303,-1.53223 -8.4352,-9.80578 -17.3345,-19.167 -26.4787,-28.30981 -1.5978,-1.60001 -3.1874,-3.2079 -4.7769,-4.81616 -5.7091,-5.73948 -11.5148,-11.09936 -17.8735,-16.12256 -2.535,-2.0435 -4.9287,-4.19541 -7.3179,-6.40674 C 1808.9668,275.73086 1778.7457,257.19442 1749,241 c -0.7712,-0.42249 -1.5424,-0.84498 -2.3369,-1.28027 -20.8925,-11.39059 -42.5594,-20.59452 -64.9116,-28.7085 -2.5681,-0.94383 -5.1202,-1.92016 -7.6695,-2.91357 -11.1563,-4.31352 -22.4443,-7.4726 -34.0534,-10.32959 -3.4409,-0.87263 -6.8594,-1.81644 -10.2825,-2.75635 -7.584,-2.02916 -15.2102,-3.59697 -22.9336,-5.01172 -0.689,-0.12629 -1.378,-0.25258 -2.088,-0.38269 -4.2469,-0.77526 -8.497,-1.53103 -12.75,-2.27234 -1.8325,-0.32016 -3.664,-0.64581 -5.4955,-0.97192 C 1540.0762,178.27913 1488.5015,177.50438 1442,185 c -1.8304,0.25896 -3.6612,0.5152 -5.4922,0.76953 -24.9119,3.5351 -49.4484,8.84799 -73.5078,16.23047 -1.2939,0.38648 -2.5882,0.77197 -3.8828,1.15625 -5.0022,1.50408 -9.9044,3.11988 -14.7888,4.97534 -2.6426,0.98559 -5.3004,1.92142 -7.9612,2.85669 C 1282.0322,230.3117 1231.1528,259.95133 1187,297 c -0.6136,0.5145 -1.2272,1.02899 -1.8594,1.55908 -1.8017,1.51636 -3.5978,3.03902 -5.3906,4.56592 -0.5056,0.42998 -1.0113,0.85997 -1.5322,1.30298 -9.8058,8.43527 -19.167,17.33454 -28.3098,26.47876 -1.6001,1.5978 -3.2079,3.18738 -4.8162,4.77685 -5.7395,5.70909 -11.0994,11.51482 -16.1226,17.87354 -2.0435,2.53499 -4.1954,4.92869 -6.4067,7.31787 -18.8238,20.74197 -34.2563,45.12899 -48.5625,69.125 -0.6995,1.16233 -0.6995,1.16233 -1.4131,2.34814 -11.9327,19.91372 -22.1372,40.92425 -31.0869,62.33936 -0.3799,0.89582 -0.7597,1.79164 -1.1511,2.7146 -0.3317,0.81992 -0.6634,1.63985 -1.0051,2.48462 -0.2869,0.70342 -0.5737,1.40685 -0.8692,2.13159 -0.5773,2.41056 -0.3761,3.68203 0.5254,5.98169 1.9759,2.03098 3.9366,3.89105 6.0625,5.75 1.19,1.06634 2.3788,2.13405 3.5664,3.20312 0.8684,0.77828 0.8684,0.77828 1.7544,1.57227 2.1095,1.92412 4.1192,3.93495 6.1167,5.97461 1.9723,2.00938 3.8361,3.76234 6.0625,5.5 2.8405,2.33067 5.0475,4.94731 7.4258,7.73828 2.1981,2.4713 4.519,4.76524 6.8867,7.07422 4.3313,4.27879 8.1837,8.78868 11.9805,13.54297 1.9589,2.41565 3.9865,4.72251 6.082,7.01953 53.2632,59.44923 88.0702,137.69322 106.0625,214.625 0.1919,0.81888 0.3838,1.63775 0.5815,2.48145 3.0243,13.10979 5.054,26.36014 7,39.66699 0.3507,2.38952 0.7109,4.77712 1.0787,7.16406 11.2645,74.76284 1.3952,156.69275 -23.3829,227.6758 -0.3633,1.0467 -0.3633,1.0467 -0.7341,2.1145 -0.6062,1.7211 -1.2336,3.4346 -1.8635,5.1472 -0.7916,3.2026 -0.9391,4.6893 0.3203,7.75 2.0523,1.9307 3.9905,3.5405 6.25,5.1875 0.9511,0.7177 0.9511,0.7177 1.9214,1.4499 1.3106,0.9888 2.6249,1.9726 3.9429,2.9515 2.708,2.0264 5.3529,4.1319 8.0107,6.2236 15.2652,11.7639 31.3164,22.3449 47.875,32.1875 0.8793,0.5242 1.7586,1.0483 2.6646,1.5884 28.3784,16.7895 59.3145,32.3701 91.101,41.4116 2.8609,0.8845 5.493,1.9923 8.2261,3.2017 4.2016,1.6702 8.5931,2.7808 12.9458,3.9858 0.97,0.2726 1.94,0.5453 2.9394,0.8262 2.3732,0.6663 4.7476,1.3283 7.1231,1.9863 0,0.33 0,0.66 0,1 -8.2352,-0.507 -16.0365,-1.94 -24.0625,-3.8125 -2.4035,-0.5541 -4.8071,-1.1075 -7.2109,-1.6602 -1.7359,-0.4005 -1.7359,-0.4005 -3.5069,-0.809 -2.7057,-0.6036 -5.4075,-1.1521 -8.1338,-1.6519 -13.1219,-2.455 -24.9515,-7.6075 -37.0859,-13.0664 -0.8474,-0.3782 -1.6948,-0.7564 -2.5679,-1.146 -13.1799,-5.9244 -25.8462,-12.7671 -38.4321,-19.854 -1.1328,-0.6359 -1.1328,-0.6359 -2.2886,-1.2847 -12.3118,-6.9533 -24.0433,-14.7385 -35.7114,-22.7153 -0.7691,-0.5238 -1.5382,-1.0477 -2.3306,-1.5874 -8.7545,-5.9859 -17.1734,-12.2539 -25.3191,-19.0496 -3.6555,-3.0439 -7.3405,-5.8007 -11.3503,-8.363 -0.2296,0.5752 -0.4592,1.1503 -0.6958,1.7429 -13.0939,32.5877 -28.5838,64.131 -48.3042,93.2571 -0.4334,0.6466 -0.8669,1.2933 -1.3135,1.9595 -10.0009,14.9051 -20.4119,29.5864 -32.1904,43.146 -2.3177,2.6876 -4.5369,5.4301 -6.7461,8.207 -9.6234,11.7713 -20.4639,22.4918 -31.1875,33.25 -0.9232,0.9279 -1.8464,1.8558 -2.7976,2.8118 -5.0953,5.0832 -10.2873,9.9588 -15.7649,14.6257 -1.0832,0.9492 -2.1653,1.8996 -3.2461,2.8516 -8.9432,7.8009 -18.2338,15.0666 -27.7539,22.1484 -0.7061,0.5271 -1.4122,1.0541 -2.1397,1.5972 -44.18832,32.8531 -92.67424,57.922 -144.8603,75.4028 -1.05832,0.3555 -2.11664,0.7109 -3.20703,1.0771 -13.17156,4.3673 -26.48672,7.9672 -39.98047,11.1729 -0.67146,0.161 -1.34292,0.322 -2.03473,0.4879 -4.10945,0.9783 -8.22979,1.8833 -12.36408,2.7502 -1.57192,0.3334 -3.14206,0.6753 -4.70997,1.027 -17.79507,3.9363 -35.3646,4.1115 -53.48291,4.0881 -3.35087,0 -6.70168,0.01 -10.05254,0.017 -7.93204,0.022 -15.8639,0.023 -23.79596,0.011 -8.08271,-0.012 -16.16473,0.013 -24.24733,0.055 -7.02685,0.036 -14.05349,0.047 -21.08042,0.041 -4.15808,0 -8.31565,10e-4 -12.47364,0.029 -21.92549,0.1373 -42.15802,-1.8564 -63.57092,-6.7566 -0.69122,-0.1572 -1.38245,-0.3143 -2.09462,-0.4762 -22.47145,-5.1096 -44.21245,-11.7697 -65.90538,-19.5238 -1.23702,-0.4418 -2.47403,-0.8837 -3.74854,-1.3389 -35.02746,-12.7169 -69.83186,-29.9569 -100.39206,-51.3701 -2.1462,-1.4901 -4.314,-2.9458 -6.4844,-4.4004 -9.791,-6.5835 -19.227,-13.4417 -28.375,-20.8906 -1.3922,-1.1196 -1.3922,-1.1196 -2.8125,-2.2617 -16.4883,-13.3489 -32.0439,-27.5153 -47.0625,-42.4883 -0.4985,-0.4958 -0.9969,-0.9916 -1.5105,-1.5023 -5.759,-5.7356 -11.3489,-11.5528 -16.6145,-17.7477 -0.9491,-1.0833 -1.8995,-2.1654 -2.8516,-3.2461 -7.8009,-8.9432 -15.0666,-18.2338 -22.1484,-27.7539 -0.7906,-1.0591 -0.7906,-1.0591 -1.5972,-2.1396 -32.8531,-44.1884 -57.922,-92.6743 -75.4028,-144.8604 -0.3555,-1.0583 -0.7109,-2.1166 -1.0771,-3.207 -14.8821,-44.8838 -23.9511,-93.18359 -24.126,-140.50003 -0.011,-1.90778 -0.011,-1.90778 -0.021,-3.8541 -0.019,-4.08379 -0.024,-8.16753 -0.026,-12.25137 -6e-4,-0.69491 0,-1.38981 0,-2.10578 -0.013,-20.85299 0.3772,-41.39219 3.2518,-62.08172 0.293,-2.29166 0.586,-4.58333 0.8789,-6.875 9.9646,-74.61739 36.8312,-148.66479 79.1211,-211.125 0.4334,-0.64663 0.8669,-1.29325 1.3135,-1.95947 10.0009,-14.90515 20.4119,-29.58643 32.1904,-43.146 2.3177,-2.68767 4.5369,-5.43011 6.7461,-8.20703 9.6234,-11.77133 20.4639,-22.49175 31.1875,-33.25 0.9232,-0.92788 1.8464,-1.85577 2.7976,-2.81177 5.0953,-5.08326 10.2873,-9.95884 15.7649,-14.62573 1.0832,-0.94918 2.1653,-1.89965 3.2461,-2.85156 8.9432,-7.80098 18.2338,-15.06664 27.7539,-22.14844 0.7061,-0.52707 1.4122,-1.05413 2.1396,-1.59717 44.1884,-32.8531 92.6743,-57.92201 144.8604,-75.40283 1.05832,-0.35546 2.11664,-0.71092 3.20703,-1.07715 44.88373,-14.88206 93.18356,-23.95103 140.5,-24.12598 1.27185,-0.007 2.5437,-0.0139 3.8541,-0.0211 4.08379,-0.0193 8.16753,-0.0242 12.25137,-0.0258 0.69491,-5.9e-4 1.38981,-0.001 2.10578,-0.002 20.85299,-0.0125 41.39219,0.37722 62.08172,3.25179 2.29166,0.29299 4.58333,0.58596 6.875,0.87891 74.61739,9.9646 148.66479,36.83114 211.125,79.12109 0.64663,0.43345 1.29325,0.86689 1.95947,1.31348 15.98012,10.72219 31.58303,21.96805 46.04053,34.68652 3.0194,-5.88239 5.6897,-11.84334 8.25,-17.9375 7.3406,-17.23948 15.5633,-33.72488 24.75,-50.0625 0.4254,-0.75813 0.8508,-1.51626 1.2891,-2.29736 6.9518,-12.30877 14.736,-24.03732 22.7109,-35.70264 0.5238,-0.76909 1.0477,-1.53817 1.5874,-2.33057 6.8606,-10.03377 14.1846,-19.5659 21.9565,-28.90918 2.0347,-2.45974 4.0218,-4.9572 6.0186,-7.44775 4.7266,-5.77023 9.7884,-11.20487 14.8848,-16.64648 1.5432,-1.65581 3.0734,-3.32263 4.5996,-4.99415 8.2168,-8.9933 16.5243,-17.88796 25.8047,-25.80468 2.1806,-1.89517 4.3025,-3.84688 6.4196,-5.8125 6.0472,-5.60945 12.2728,-10.91605 18.7288,-16.05469 1.0677,-0.86064 2.1354,-1.72132 3.2031,-2.58203 8.9913,-7.20163 18.3052,-13.89356 27.7969,-20.41797 0.6355,-0.43699 1.271,-0.87398 1.9258,-1.32422 15.0925,-10.32644 30.732,-19.73495 46.8076,-28.44629 1.503,-0.8153 3.0037,-1.63492 4.5019,-2.45898 72.2494,-39.69812 155.7057,-58.31499 237.763,-58.08237 z M 686.78888,388.0293 c -16.138,0.2263 -31.93711,1.27965 -47.91242,3.57226 -2.88643,0.39982 -5.77488,0.75028 -8.66943,1.08594 -12.724,1.49713 -25.09579,3.81668 -37.57324,6.71143 -2.40707,0.54933 -4.81754,1.06639 -7.23535,1.56591 -73.98313,15.39419 -145.70634,52.48867 -203.66304,100.60401 -1.537,1.26753 -3.092,2.51314 -4.6495,3.75537 -7.378,5.88723 -14.2145,12.2877 -21.0639,18.77148 -2.0861,1.9647 -4.1867,3.91277 -6.2915,5.85742 -0.7068,0.65533 -1.4136,1.31066 -2.1419,1.98584 -1.3462,1.24789 -2.6948,2.49321 -4.0464,3.73536 -3.8687,3.60079 -7.4093,7.35957 -10.8498,11.3706 -2.6015,3.00527 -5.3407,5.87645 -8.0674,8.76758 -5.4779,5.86143 -10.6479,11.89186 -15.625,18.1875 -0.846,1.05367 -1.6924,2.10704 -2.5391,3.16016 -62.5411,78.22486 -104.2839,177.46232 -107.8007,375.04296 1.3055,11.65231 3.4357,23.10324 5.8798,34.56397 0.4263,2.0693 0.8107,4.13951 1.1709,6.22119 C 216.4276,1054.7037 242.866,1115.7463 277,1168 c 0.6845,1.0609 1.369,2.1218 2.0742,3.2148 9.3561,14.2989 19.5847,27.9084 30.4946,41.0498 1.2676,1.537 2.5132,3.092 3.7554,4.6495 5.9151,7.413 12.3557,14.2732 18.8662,21.1587 1.7876,1.9038 3.5556,3.8238 5.3174,5.7514 5.0171,5.4836 9.9589,10.846 15.6797,15.6133 1.9908,1.7162 3.7964,3.5499 5.625,5.4375 3.9071,3.9683 8.1327,7.4275 12.4727,10.9102 2.4347,1.9863 4.7687,4.0356 7.0898,6.1523 74.9382,67.1404 179.56398,106.4112 362.4861,114.8385 18.2629,-1.049 36.02196,-3.5021 53.90599,-7.316 2.0693,-0.4263 4.13951,-0.8107 6.22119,-1.1709 C 862.70373,1377.5724 923.7463,1351.134 976,1317 c 1.0609,-0.6845 2.1218,-1.369 3.21484,-2.0742 14.29885,-9.3561 27.90836,-19.5847 41.04976,-30.4946 1.537,-1.2676 3.092,-2.5132 4.6495,-3.7554 7.413,-5.9151 14.2732,-12.3557 21.1586,-18.8662 1.9039,-1.7876 3.8238,-3.5556 5.7515,-5.3174 5.4836,-5.0171 10.846,-9.9589 15.6133,-15.6797 1.7162,-1.9908 3.5499,-3.7964 5.4375,-5.625 3.9683,-3.9071 7.4275,-8.1327 10.9102,-12.4727 1.9863,-2.4347 4.0356,-4.7687 6.1523,-7.0898 19.0464,-21.2585 34.7039,-46.0525 49.0625,-70.625 0.4172,-0.709 0.8343,-1.418 1.2642,-2.1484 19.8544,-33.9388 34.2829,-70.333 45.7358,-107.8516 0.3013,-0.967 0.6026,-1.9339 0.9131,-2.9302 8.5243,-27.4253 13.8384,-56.4226 16.8603,-84.97703 0.1568,-1.44836 0.3242,-2.89561 0.5,-4.34179 2.4699,-20.50141 2.0114,-41.14153 1.7266,-61.75098 -0.01,-0.72967 -0.019,-1.45934 -0.029,-2.21112 -0.2263,-16.138 -1.2797,-31.93711 -3.5723,-47.91242 -0.3998,-2.88643 -0.7502,-5.77488 -1.0859,-8.66943 -1.4971,-12.724 -3.8167,-25.09579 -6.7114,-37.57324 -0.5494,-2.40707 -1.0664,-4.81754 -1.5659,-7.23535 -15.3942,-73.98313 -52.4887,-145.70632 -100.6041,-203.66309 -1.2675,-1.53695 -2.5131,-3.09193 -3.7553,-4.64941 -5.9151,-7.41304 -12.3557,-14.27328 -18.8662,-21.15869 -1.7876,-1.90381 -3.5556,-3.8238 -5.3174,-5.75147 -5.0171,-5.48358 -9.9589,-10.84595 -15.6797,-15.61328 -1.9908,-1.71619 -3.7964,-3.54991 -5.625,-5.4375 -3.9071,-3.96835 -8.1327,-7.42747 -12.4727,-10.91016 -2.4347,-1.98635 -4.7687,-4.03566 -7.0898,-6.15234 C 1002.3665,485.01607 977.57252,469.35858 953,455 c -0.70898,-0.41717 -1.41797,-0.83435 -2.14844,-1.26416 C 916.91284,433.88136 880.51855,419.45286 843,408 c -0.96696,-0.30132 -1.93392,-0.60264 -2.93018,-0.91309 -27.42529,-8.52428 -56.42262,-13.83842 -84.97705,-16.86035 -1.44836,-0.1568 -2.89561,-0.32417 -4.34179,-0.5 -21.2327,-2.55795 -42.61985,-1.98004 -63.9621,-1.69726 z"
     fill="#757573"
     id="path9" />
  <path
     d="m 854,2064 c 33.33,0 66.66,0 101,0 0,63.36 0,126.72 0,192 -33.33,0 -66.66,0 -101,0 0,-63.36 0,-126.72 0,-192 z"
     fill="#ffc000"
     id="path10" />
  <path
     d="m 643,2064 c 33.33,0 66.66,0 101,0 0,63.36 0,126.72 0,192 -33.33,0 -66.66,0 -101,0 0,-63.36 0,-126.72 0,-192 z"
     fill="#ff0000"
     id="path11" />
  <path
     d="m 437,2064 c 33.33,0 66.66,0 101,0 0,63.36 0,126.72 0,192 -33.33,0 -66.66,0 -101,0 0,-63.36 0,-126.72 0,-192 z"
     fill="#ff0000"
     id="path12" />
  <path
     d="m 1485,2064 c 33.33,0 66.66,0 101,0 0,63.03 0,126.06 0,191 -33.33,0 -66.66,0 -101,0 0,-63.03 0,-126.06 0,-191 z"
     fill="#ffc000"
     id="path13" />
  <path
     d="m 1275,2064 c 33.33,0 66.66,0 101,0 0,63.03 0,126.06 0,191 -33.33,0 -66.66,0 -101,0 0,-63.03 0,-126.06 0,-191 z"
     fill="#ff0000"
     id="path14" />
  <path
     d="m 1065,2064 c 33.33,0 66.66,0 101,0 0,63.03 0,126.06 0,191 -33.33,0 -66.66,0 -101,0 0,-63.03 0,-126.06 0,-191 z"
     fill="#70ad46"
     id="path15" />
  <path
     d="m 1478,2057 c 37.95,0 75.9,0 115,0 0,67.65 0,135.3 0,205 -37.95,0 -75.9,0 -115,0 0,-67.65 0,-135.3 0,-205 z m 7,7 c 0,63.03 0,126.06 0,191 33.33,0 66.66,0 101,0 0,-63.03 0,-126.06 0,-191 -33.33,0 -66.66,0 -101,0 z"
     fill="#404040"
     id="path16" />
  <path
     d="m 1268,2057 c 37.95,0 75.9,0 115,0 0,67.65 0,135.3 0,205 -37.95,0 -75.9,0 -115,0 0,-67.65 0,-135.3 0,-205 z m 7,7 c 0,63.03 0,126.06 0,191 33.33,0 66.66,0 101,0 0,-63.03 0,-126.06 0,-191 -33.33,0 -66.66,0 -101,0 z"
     fill="#404040"
     id="path17" />
  <path
     d="m 1058,2057 c 37.95,0 75.9,0 115,0 0,67.65 0,135.3 0,205 -37.95,0 -75.9,0 -115,0 0,-67.65 0,-135.3 0,-205 z m 7,7 c 0,63.03 0,126.06 0,191 33.33,0 66.66,0 101,0 0,-63.03 0,-126.06 0,-191 -33.33,0 -66.66,0 -101,0 z"
     fill="#404040"
     id="path18" />
  <path
     d="m 1359,1168 c 2.6273,0.6164 5.2515,1.2427 7.875,1.875 0.7464,0.174 1.4927,0.348 2.2617,0.5273 5.6367,1.3711 5.6367,1.3711 7.8633,3.5977 -6.2511,-0.4295 -12.042,-1.014 -18,-3 0,-0.99 0,-1.98 0,-3 z"
     fill="#7f7f65"
     id="path19" />
</svg>
