<?xml version="1.0" encoding="UTF-8"?>
<svg version="1.1" xmlns="http://www.w3.org/2000/svg">
<path d="M0 0 C1.3528136 0.00192478 2.70562733 0.00376516 4.05844116 0.00552368 C24.19442884 0.04354487 44.02615032 0.57014442 64 3.3125 C65.27230469 3.47878906 66.54460937 3.64507812 67.85546875 3.81640625 C133.45763938 12.55904498 196.33748559 33.84373118 254 66.3125 C254.75522949 66.73644043 255.51045898 67.16038086 256.28857422 67.59716797 C268.60044285 74.55044502 280.33186158 82.3356952 292 90.3125 C292.76908691 90.83634277 293.53817383 91.36018555 294.33056641 91.89990234 C304.36434378 98.7604728 313.89646923 106.08450472 323.23974609 113.85644531 C325.69949478 115.89111121 328.19694797 117.87823325 330.6875 119.875 C336.45773219 124.6015878 341.89237212 129.66344956 347.33398438 134.75976562 C348.9897866 136.30298106 350.6566077 137.83320703 352.328125 139.359375 C361.32142692 147.57624811 370.21608692 155.88369041 378.1328125 165.1640625 C380.0279838 167.34469893 381.97969074 169.46662481 383.9453125 171.58374023 C389.55476074 177.63094767 394.86135842 183.85648172 400 190.3125 C400.86063973 191.38023844 401.72131834 192.44794555 402.58203125 193.515625 C409.78366442 202.5069362 416.47559088 211.82082537 423 221.3125 C423.43699219 221.94800781 423.87398437 222.58351563 424.32421875 223.23828125 C434.65066517 238.33077987 444.05917146 253.9703396 452.77050781 270.04589844 C453.5858069 271.548924 454.40542849 273.04961344 455.22949219 274.54785156 C494.92824646 346.7989547 513.54511947 430.25518644 513.3125 512.3125 C513.31057522 513.6653136 513.30873484 515.01812733 513.30697632 516.37094116 C513.26895513 536.50692884 512.74235558 556.33865032 510 576.3125 C509.83371094 577.58480469 509.66742187 578.85710938 509.49609375 580.16796875 C500.75345502 645.77013938 479.46876882 708.64998559 447 766.3125 C446.36408936 767.44534424 446.36408936 767.44534424 445.71533203 768.60107422 C438.76205498 780.91294285 430.9768048 792.64436158 423 804.3125 C422.21423584 805.46613037 422.21423584 805.46613037 421.41259766 806.64306641 C414.5520272 816.67684378 407.22799528 826.20896923 399.45605469 835.55224609 C397.42138879 838.01199478 395.43426675 840.50944797 393.4375 843 C388.7109122 848.77023219 383.64905044 854.20487212 378.55273438 859.64648438 C377.00951894 861.3022866 375.47929297 862.9691077 373.953125 864.640625 C365.73625189 873.63392692 357.42880959 882.52858692 348.1484375 890.4453125 C345.96780107 892.3404838 343.84587519 894.29219074 341.72875977 896.2578125 C335.68155233 901.86726074 329.45601828 907.17385842 323 912.3125 C321.93226156 913.17313973 320.86455445 914.03381834 319.796875 914.89453125 C310.8055638 922.09616442 301.49167463 928.78809088 292 935.3125 C291.04673828 935.96798828 291.04673828 935.96798828 290.07421875 936.63671875 C274.98172013 946.96316517 259.3421604 956.37167146 243.26660156 965.08300781 C241.763576 965.8983069 240.26288656 966.71792849 238.76464844 967.54199219 C182.97585413 998.195443 119.23363071 1016.66699909 56 1023.3125 C54.65083496 1023.45896973 54.65083496 1023.45896973 53.27441406 1023.60839844 C31.92776555 1025.84629276 10.44179317 1025.94017833 -11 1026.3125 C-9.75500732 1026.56418945 -8.51001465 1026.81587891 -7.22729492 1027.07519531 C-2.56065865 1028.02095235 2.10363314 1028.97787004 6.76733398 1029.93798828 C8.77713835 1030.35016495 10.78754713 1030.75940675 12.79858398 1031.16552734 C48.33113722 1038.34792077 48.33113722 1038.34792077 59.5 1053.8125 C67.50087482 1067.14729136 68.33879798 1079.78283697 65.10180664 1094.68847656 C64.8975922 1095.67189183 64.69337776 1096.6553071 64.48297501 1097.66852283 C63.80246543 1100.93234036 63.10634167 1104.19261834 62.41015625 1107.453125 C61.91718699 1109.80167354 61.42520316 1112.15042911 60.93412781 1114.49937439 C59.73963281 1120.20080961 58.53509411 1125.90005434 57.32607907 1131.59842664 C55.90874104 1138.281462 54.50397789 1144.96712179 53.1000526 1151.65298545 C50.75078004 1162.83975962 48.39411649 1174.0249586 46.03162122 1185.2089473 C42.55350382 1201.6743358 39.09483044 1218.14374739 35.6442337 1234.614923 C19.36967606 1312.29419792 19.36967606 1312.29419792 12.54296875 1344.22265625 C12.38038952 1344.98335608 12.21781029 1345.7440559 12.05030441 1346.52780724 C10.48992558 1353.82755791 8.92451174 1361.12618361 7.34863281 1368.42260742 C7.11163162 1369.52507309 6.87463043 1370.62753876 6.63044739 1371.76341248 C6.20423619 1373.74587443 5.7756551 1375.72782927 5.34403992 1377.7091217 C5.16339493 1378.55115646 4.98274994 1379.39319122 4.79663086 1380.26074219 C4.64109238 1380.97881042 4.48555389 1381.69687866 4.32530212 1382.43670654 C3.91456467 1384.48784813 3.91456467 1384.48784813 4 1387.3125 C6.1849346 1388.7813636 8.32276101 1390.05300682 10.625 1391.3125 C21.53512776 1397.5636378 31.39355642 1405.11174957 40 1414.3125 C40.78761719 1415.09882812 41.57523438 1415.88515625 42.38671875 1416.6953125 C71.84910616 1446.20173936 89.06826346 1486.44277671 89.29516602 1528.17895508 C89.30651083 1529.6162311 89.32667234 1531.0534712 89.35668945 1532.49047852 C89.54006029 1541.32403554 88.9462115 1549.77034815 87.37182617 1558.46948242 C87.19677299 1559.45410084 87.02171982 1560.43871925 86.841362 1561.45317459 C84.50091958 1574.37735212 81.77847295 1587.22600372 79.07213593 1600.0773592 C78.30777408 1603.71127491 77.54796407 1607.34614259 76.78759766 1610.980896 C75.35065335 1617.84655937 73.90976725 1624.71138892 72.46737862 1631.57591033 C70.83856064 1639.3286681 69.21431309 1647.08238113 67.59039688 1654.83616686 C62.73935103 1677.99755256 57.87917215 1701.15702145 53 1724.3125 C49.55683416 1725.46177191 47.12821823 1725.15688429 43.59764099 1724.43464661 C42.50051788 1724.21461975 41.40339478 1723.9945929 40.27302551 1723.76789856 C39.07360825 1723.51811752 37.87419098 1723.26833649 36.63842773 1723.01098633 C35.37113831 1722.75421112 34.10384888 1722.49743591 32.79815674 1722.23287964 C29.31832612 1721.52757943 25.84078588 1720.81152535 22.36355472 1720.09353471 C18.70749982 1719.34050228 15.04945315 1718.59727246 11.39161682 1717.85295105 C4.44307342 1716.43744316 -2.50360013 1715.01296645 -9.44966596 1713.58535641 C-17.27856189 1711.97678707 -25.10958164 1710.37868263 -32.94076073 1708.78127253 C-48.8597152 1705.53353479 -64.77722189 1702.27882228 -80.68858719 1698.9940834 C-83.77728691 1698.35834072 -86.86719225 1697.72884619 -89.95748901 1697.10092163 C-91.67604643 1696.74806528 -93.3945659 1696.395024 -95.11303711 1696.04174805 C-96.23292825 1695.81702301 -96.23292825 1695.81702301 -97.37544346 1695.58775806 C-100.15096303 1695.0125716 -102.77584015 1694.40380009 -105.40524578 1693.33284569 C-107.96907783 1692.32465965 -110.38287954 1691.69800794 -113.07748413 1691.13926697 C-114.08164997 1690.92869943 -115.08581581 1690.71813189 -116.12041092 1690.50118351 C-117.21553371 1690.27641551 -118.31065651 1690.05164751 -119.43896484 1689.82006836 C-120.60700024 1689.57651076 -121.77503563 1689.33295317 -122.97846603 1689.08201504 C-126.20775806 1688.4095551 -129.43785047 1687.74119826 -132.66833735 1687.07451773 C-136.13034097 1686.35897492 -139.59121806 1685.63802352 -143.05221558 1684.91763306 C-149.0225569 1683.67563156 -154.99354061 1682.43676093 -160.96496582 1681.19998169 C-170.46954119 1679.23131214 -179.97270513 1677.25588374 -189.47558594 1675.27905273 C-191.08551002 1674.94417111 -192.69543434 1674.6092906 -194.30535889 1674.2744112 C-196.72944195 1673.77017473 -199.15352314 1673.2659293 -201.57759762 1672.76165158 C-206.46994614 1671.74393612 -211.36239459 1670.72670269 -216.25492382 1669.70985633 C-246.26206598 1663.47322461 -276.25833141 1657.18564879 -306.25 1650.875 C-314.58911154 1649.12058184 -322.92826093 1647.36634361 -331.2674675 1645.61237717 C-333.70391912 1645.09992121 -336.14036372 1644.58743188 -338.5768013 1644.07490921 C-358.18283306 1639.95096667 -377.79179796 1635.84114519 -397.40194297 1631.73681265 C-403.2456831 1630.51372225 -409.08933291 1629.29020111 -414.93292236 1628.06639099 C-415.75402725 1627.89443181 -416.57513213 1627.72247263 -417.42111897 1627.54530257 C-420.72765513 1626.85282853 -424.03418933 1626.16034522 -427.34071398 1625.46781623 C-437.07936705 1623.4281443 -446.81833483 1621.38999033 -456.55783343 1619.35435951 C-462.64042263 1618.08291422 -468.72262548 1616.8096319 -474.8045361 1615.53494465 C-478.33536822 1614.79500115 -481.866378 1614.05593309 -485.3978653 1613.31912231 C-489.25475394 1612.51440863 -493.1108087 1611.70574665 -496.96679688 1610.89672852 C-498.09212955 1610.66261041 -499.21746223 1610.4284923 -500.3768959 1610.1872797 C-505.65303623 1609.07694912 -510.84215467 1607.88633479 -516 1606.3125 C-515.30650372 1598.58765814 -513.82880608 1591.1283799 -512.2277832 1583.54467773 C-511.9414585 1582.17351452 -511.65549347 1580.80227615 -511.36985779 1579.43096924 C-510.59665949 1575.72462184 -509.81811612 1572.01941664 -509.03832269 1568.31445193 C-508.38337475 1565.20004196 -507.7311572 1562.08506281 -507.07894486 1558.970079 C-505.53533672 1551.59782614 -503.98747357 1544.22647579 -502.43676758 1536.85571289 C-500.85066642 1529.31642314 -499.27091048 1521.77582508 -497.69452029 1514.23449939 C-496.33139867 1507.71437819 -494.96456886 1501.19504177 -493.59484929 1494.67630345 C-492.7811948 1490.8039211 -491.96872569 1486.93130178 -491.15969276 1483.05795097 C-488.20873288 1468.9377709 -485.23304381 1454.82922387 -481.76635742 1440.82446289 C-481.53579556 1439.8869667 -481.30523371 1438.9494705 -481.06768513 1437.98356533 C-470.35933894 1395.75797023 -442.4593757 1360.05540808 -405.29296875 1337.76171875 C-387.90773777 1327.66279736 -365.50387975 1317.3125 -345 1317.3125 C-345.04221176 1316.0508905 -345.08442352 1314.78928101 -345.12791443 1313.48944092 C-345.12042873 1307.97545205 -344.1118795 1302.8553042 -342.95336914 1297.48144531 C-342.73259705 1296.42212579 -342.51182495 1295.36280626 -342.28436279 1294.27138615 C-341.54318193 1290.72594455 -340.78913099 1287.18336609 -340.03515625 1283.640625 C-339.4966415 1281.07741091 -338.958939 1278.51402606 -338.42198181 1275.95048523 C-337.1071301 1269.68024488 -335.78277629 1263.41204803 -334.45529312 1257.14447123 C-332.8975165 1249.78772752 -331.34906838 1242.42903051 -329.80137372 1235.07016027 C-327.66248151 1224.90069788 -325.52154108 1214.73167049 -323.37539673 1204.56373596 C-318.77422497 1182.7623488 -314.20095753 1160.95525884 -309.64558381 1139.14425743 C-307.20334483 1127.45142768 -304.75646553 1115.75956865 -302.30927753 1104.06777382 C-300.47377424 1095.29778237 -298.64002534 1086.52743143 -296.81033325 1077.75622559 C-295.24380273 1070.24692231 -293.67285206 1062.73855919 -292.09651202 1055.23130876 C-291.28848446 1051.38247434 -290.48244196 1047.53325296 -289.68183708 1043.68286705 C-288.94392647 1040.13420169 -288.20024599 1036.58679382 -287.45221508 1033.04024839 C-287.05763063 1031.16234395 -286.66901047 1029.28318924 -286.28068638 1027.40398026 C-282.71900056 1010.5974565 -278.48477889 996.75177082 -264 986.3125 C-248.14977586 976.68477498 -233.11017644 979.7844551 -216 983.3125 C-214.02515558 983.70263253 -212.04990091 984.09069478 -210.07421875 984.4765625 C-205.37777756 985.39824825 -200.68767093 986.34724027 -196 987.3125 C-196.86351074 986.9314209 -197.72702148 986.5503418 -198.61669922 986.15771484 C-231.07148142 971.79540943 -261.67513435 955.35882017 -291 935.3125 C-291.72074707 934.82136719 -292.44149414 934.33023438 -293.18408203 933.82421875 C-301.98464847 927.80225589 -310.45861677 921.50943855 -318.64892578 914.67602539 C-322.30477578 911.63203915 -325.98997022 908.87497679 -330 906.3125 C-330.22961426 906.88766357 -330.45922852 907.46282715 -330.69580078 908.05541992 C-343.78972556 940.64310912 -359.27960961 972.18643643 -379 1001.3125 C-379.43344727 1001.95912598 -379.86689453 1002.60575195 -380.31347656 1003.27197266 C-390.31439816 1018.17712116 -400.72541201 1032.85839977 -412.50390625 1046.41796875 C-414.82161686 1049.10564256 -417.04080193 1051.84807505 -419.25 1054.625 C-428.87340329 1066.39633338 -439.71392071 1077.11675226 -450.4375 1087.875 C-451.36071045 1088.8028833 -452.2839209 1089.7307666 -453.23510742 1090.68676758 C-458.33035443 1095.77002902 -463.52237216 1100.64560546 -469 1105.3125 C-470.08320624 1106.26168161 -471.16528745 1107.21214904 -472.24609375 1108.1640625 C-481.18932483 1115.96504206 -490.47992552 1123.23070005 -500 1130.3125 C-500.70608398 1130.83956543 -501.41216797 1131.36663086 -502.13964844 1131.90966797 C-546.3280247 1164.7627651 -594.81393878 1189.83167776 -647 1207.3125 C-648.05832031 1207.66795898 -649.11664062 1208.02341797 -650.20703125 1208.38964844 C-663.50170454 1212.7977515 -676.93861857 1216.40821367 -690.5625 1219.625 C-691.25958069 1219.79026184 -691.95666138 1219.95552368 -692.67486572 1220.12579346 C-703.05574122 1222.57035686 -713.48298963 1224.54917381 -724 1226.3125 C-723.05945015 1226.31796844 -723.05945015 1226.31796844 -722.09989929 1226.32354736 C-715.52871643 1226.36560484 -708.95821698 1226.43511121 -702.38745117 1226.52001953 C-699.94058086 1226.54811293 -697.49362175 1226.56938483 -695.04663086 1226.58349609 C-691.51370158 1226.60508662 -687.98182693 1226.65182114 -684.44921875 1226.703125 C-683.36855637 1226.70435364 -682.28789398 1226.70558228 -681.17448425 1226.70684814 C-668.92434924 1226.93905796 -659.09060189 1231.10341102 -650 1239.3125 C-640.52826191 1249.80133748 -637.38900118 1260.48192466 -637.48101807 1274.40409851 C-637.47351681 1275.67939842 -637.46601556 1276.95469832 -637.458287 1278.26864368 C-637.43816824 1281.77840418 -637.4425431 1285.28775723 -637.45119452 1288.79754865 C-637.45616368 1292.59361893 -637.43802443 1296.38959002 -637.42277527 1300.18562317 C-637.39951881 1306.75252799 -637.39071225 1313.31932254 -637.39188385 1319.88626671 C-637.39355661 1329.38079049 -637.37318255 1338.87516775 -637.34752855 1348.36965237 C-637.306495 1363.77596879 -637.2831467 1379.18225876 -637.27099609 1394.58862305 C-637.25915897 1409.54926086 -637.23894559 1424.50984894 -637.20751953 1439.47045898 C-637.20461538 1440.85507699 -637.20461538 1440.85507699 -637.20165256 1442.26766708 C-637.19188763 1446.89875249 -637.18195859 1451.52983752 -637.17194796 1456.16092241 C-637.08918893 1494.54475797 -637.03516341 1532.92859304 -637 1571.3125 C-636.48101293 1571.51231791 -635.96202585 1571.71213581 -635.4273119 1571.9180088 C-633.05542098 1572.83238552 -630.68456653 1573.74942103 -628.3137207 1574.66650391 C-627.49726326 1574.98079849 -626.68080582 1575.29509308 -625.83960724 1575.61891174 C-620.46323924 1577.70136469 -615.24261945 1579.90123474 -610.1875 1582.6875 C-609.49575684 1583.06197266 -608.80401367 1583.43644531 -608.09130859 1583.82226562 C-601.38851735 1587.52355344 -595.12932424 1591.7175257 -589 1596.3125 C-588.11441406 1596.97378906 -587.22882812 1597.63507813 -586.31640625 1598.31640625 C-566.3855709 1613.92346454 -551.50136079 1632.89727425 -540 1655.3125 C-539.26523438 1656.72015625 -539.26523438 1656.72015625 -538.515625 1658.15625 C-529.60644252 1676.43742963 -523.79262845 1697.77992977 -523.87974548 1718.14599609 C-523.87889106 1718.89195447 -523.87803663 1719.63791285 -523.87715632 1720.40647602 C-523.87552132 1722.88298834 -523.88099016 1725.35943152 -523.88647461 1727.8359375 C-523.88675694 1729.62034605 -523.88659786 1731.40475472 -523.8860321 1733.18916321 C-523.8857459 1738.01705814 -523.89161401 1742.84492809 -523.89860606 1747.67281723 C-523.90486908 1752.72434105 -523.90544573 1757.77586548 -523.90663147 1762.82739258 C-523.9097361 1772.38590124 -523.91793777 1781.94439842 -523.92798096 1791.50290203 C-523.93916908 1802.38800586 -523.94465935 1813.27311024 -523.94967639 1824.15821838 C-523.96012111 1846.54298549 -523.97790582 1868.92774162 -524 1891.3125 C-531.59 1891.3125 -539.18 1891.3125 -547 1891.3125 C-547 1955.3325 -547 2019.3525 -547 2085.3125 C-515.32 2085.3125 -483.64 2085.3125 -451 2085.3125 C-451 2018.9825 -451 1952.6525 -451 1884.3125 C-413.05 1884.3125 -375.1 1884.3125 -336 1884.3125 C-336 1950.6425 -336 2016.9725 -336 2085.3125 C-304.65 2085.3125 -273.3 2085.3125 -241 2085.3125 C-241 2018.9825 -241 1952.6525 -241 1884.3125 C-203.05 1884.3125 -165.1 1884.3125 -126 1884.3125 C-126 1950.6425 -126 2016.9725 -126 2085.3125 C-94.65 2085.3125 -63.3 2085.3125 -31 2085.3125 C-31 2018.9825 -31 1952.6525 -31 1884.3125 C6.95 1884.3125 44.9 1884.3125 84 1884.3125 C84 1950.6425 84 2016.9725 84 2085.3125 C108.42 2085.3125 132.84 2085.3125 158 2085.3125 C158 2119.6325 158 2153.9525 158 2189.3125 C-273.64 2189.3125 -705.28 2189.3125 -1150 2189.3125 C-1150 2154.9925 -1150 2120.6725 -1150 2085.3125 C-1126.57 2085.3125 -1103.14 2085.3125 -1079 2085.3125 C-1079 2021.2925 -1079 1957.2725 -1079 1891.3125 C-1087.25 1891.3125 -1095.5 1891.3125 -1104 1891.3125 C-1104.06964621 1868.02392289 -1104.12308552 1844.73537113 -1104.15543652 1821.44671059 C-1104.17086137 1810.63175521 -1104.19186645 1799.81686601 -1104.22631836 1789.00195312 C-1104.25635557 1779.56832086 -1104.27560679 1770.13473655 -1104.28226548 1760.70105779 C-1104.28615363 1755.7126791 -1104.29519842 1750.72443752 -1104.31719017 1745.73610306 C-1104.3377824 1741.02638493 -1104.34378864 1736.31685841 -1104.33932304 1731.60709953 C-1104.3401382 1729.89243841 -1104.34596687 1728.17776986 -1104.35761642 1726.46314812 C-1104.45279043 1711.71265131 -1102.85378591 1697.33513676 -1098.6875 1683.125 C-1098.47512695 1682.38709229 -1098.26275391 1681.64918457 -1098.04394531 1680.88891602 C-1092.50398372 1662.18451015 -1083.69200856 1644.9086942 -1072 1629.3125 C-1071.33871094 1628.42691406 -1070.67742187 1627.54132813 -1069.99609375 1626.62890625 C-1051.12282515 1602.52699019 -1026.51563932 1584.46503932 -997.84033203 1573.74780273 C-997.12088409 1573.4787059 -996.40143616 1573.20960907 -995.66018677 1572.93235779 C-995.11232513 1572.72780472 -994.5644635 1572.52325165 -994 1572.3125 C-993.99940291 1571.65861036 -993.99880582 1571.00472072 -993.99819064 1570.33101624 C-993.96228125 1531.5591377 -993.90561856 1492.78733902 -993.82207905 1454.01553256 C-993.81206183 1449.35809299 -993.80221766 1444.70065306 -993.79248047 1440.04321289 C-993.78956841 1438.65241922 -993.78956841 1438.65241922 -993.78659752 1437.23352871 C-993.75559319 1422.22892233 -993.73860124 1407.22433124 -993.72680578 1392.21969887 C-993.7143861 1376.81866318 -993.68686625 1361.41770761 -993.64538693 1346.0167225 C-993.62027493 1336.51674826 -993.60688104 1327.01690693 -993.60857043 1317.51689903 C-993.60860023 1310.99860675 -993.59393633 1304.48044966 -993.56783572 1297.96221008 C-993.55321675 1294.20389327 -993.54496348 1290.44585366 -993.55419731 1286.68751335 C-993.56405644 1282.60543393 -993.54291555 1278.52408345 -993.51898193 1274.44206238 C-993.53062256 1272.67499688 -993.53062256 1272.67499688 -993.54249835 1270.87223309 C-993.41351911 1258.41959381 -989.35284018 1248.56228946 -981 1239.3125 C-969.64288127 1229.05667763 -958.1582315 1226.71180492 -943.26953125 1226.703125 C-941.78307829 1226.68811096 -940.29664181 1226.67137716 -938.81022644 1226.65301514 C-934.93548737 1226.60969012 -931.06097314 1226.58942096 -927.18603516 1226.57427979 C-923.21698906 1226.55458153 -919.24818142 1226.51262677 -915.27929688 1226.47265625 C-907.51959592 1226.39773277 -899.75999623 1226.34721369 -892 1226.3125 C-892.70710114 1226.17969131 -893.41420227 1226.04688263 -894.14273071 1225.91004944 C-921.12378566 1220.82631471 -921.12378566 1220.82631471 -933.375 1217.75 C-934.01900757 1217.58875641 -934.66301514 1217.42751282 -935.32653809 1217.26138306 C-952.52615791 1212.91799504 -969.3042747 1207.2803295 -986 1201.3125 C-987.2370166 1200.87067383 -988.4740332 1200.42884766 -989.74853516 1199.97363281 C-1024.77596939 1187.25669718 -1059.5803931 1170.01670563 -1090.140625 1148.60351562 C-1092.2868129 1147.11335785 -1094.45456952 1145.65773761 -1096.625 1144.203125 C-1106.41601451 1137.61962931 -1115.85196319 1130.76136501 -1125 1123.3125 C-1126.3921875 1122.19294922 -1126.3921875 1122.19294922 -1127.8125 1121.05078125 C-1144.3008309 1107.70194359 -1159.85636782 1093.53553054 -1174.875 1078.5625 C-1175.37345428 1078.06672455 -1175.87190857 1077.5709491 -1176.38546753 1077.06015015 C-1182.14446405 1071.32464278 -1187.73444419 1065.5073713 -1193 1059.3125 C-1193.94905855 1058.22918594 -1194.89952656 1057.14710466 -1195.8515625 1056.06640625 C-1203.65254206 1047.12317517 -1210.91820005 1037.83257448 -1218 1028.3125 C-1218.79059814 1027.25337402 -1218.79059814 1027.25337402 -1219.59716797 1026.17285156 C-1252.4502651 981.9844753 -1277.51917776 933.49856122 -1295 881.3125 C-1295.35545898 880.25417969 -1295.71091797 879.19585938 -1296.07714844 878.10546875 C-1310.95920529 833.22174423 -1320.02818061 784.9219071 -1320.203125 737.60546875 C-1320.21357849 735.6976915 -1320.21357849 735.6976915 -1320.22424316 733.75137329 C-1320.24352498 729.66757785 -1320.24841897 725.58383601 -1320.25 721.5 C-1320.25058914 720.80509335 -1320.25117828 720.11018669 -1320.25178528 719.39422226 C-1320.26427176 698.54123154 -1319.87456895 678.00203359 -1317 657.3125 C-1316.70700934 655.02083613 -1316.41404074 652.72916945 -1316.12109375 650.4375 C-1306.15649455 575.82011136 -1279.28994569 501.77270603 -1237 439.3125 C-1236.56655273 438.66587402 -1236.13310547 438.01924805 -1235.68652344 437.35302734 C-1225.68560184 422.44787884 -1215.27458799 407.76660023 -1203.49609375 394.20703125 C-1201.17838314 391.51935744 -1198.95919807 388.77692495 -1196.75 386 C-1187.12659671 374.22866662 -1176.28607929 363.50824774 -1165.5625 352.75 C-1164.63928955 351.8221167 -1163.7160791 350.8942334 -1162.76489258 349.93823242 C-1157.66964557 344.85497098 -1152.47762784 339.97939454 -1147 335.3125 C-1145.91679376 334.36331839 -1144.83471255 333.41285096 -1143.75390625 332.4609375 C-1134.81067517 324.65995794 -1125.52007448 317.39429995 -1116 310.3125 C-1115.29391602 309.78543457 -1114.58783203 309.25836914 -1113.86035156 308.71533203 C-1069.6719753 275.8622349 -1021.18606122 250.79332224 -969 233.3125 C-967.94167969 232.95704102 -966.88335938 232.60158203 -965.79296875 232.23535156 C-920.90924423 217.35329471 -872.6094071 208.28431939 -825.29296875 208.109375 C-824.02111725 208.10240601 -822.74926575 208.09543701 -821.43887329 208.08825684 C-817.35507785 208.06897502 -813.27133601 208.06408103 -809.1875 208.0625 C-808.49259335 208.06191086 -807.79768669 208.06132172 -807.08172226 208.06071472 C-786.22873154 208.04822824 -765.68953359 208.43793105 -745 211.3125 C-742.70833613 211.60549066 -740.41666945 211.89845926 -738.125 212.19140625 C-663.50761136 222.15600545 -589.46020603 249.02255431 -527 291.3125 C-526.35337402 291.74594727 -525.70674805 292.17939453 -525.04052734 292.62597656 C-509.06040766 303.34817259 -493.45752145 314.59403409 -479 327.3125 C-475.98060161 321.4301135 -473.3102802 315.46915625 -470.75 309.375 C-463.40940644 292.13552192 -455.18665141 275.65012439 -446 259.3125 C-445.57460937 258.55437012 -445.14921875 257.79624023 -444.7109375 257.01513672 C-437.75905184 244.70637464 -429.97487913 232.97782164 -422 221.3125 C-421.47615723 220.54341309 -420.95231445 219.77432617 -420.41259766 218.98193359 C-413.5520272 208.94815622 -406.22799528 199.41603077 -398.45605469 190.07275391 C-396.42138879 187.61300522 -394.43426675 185.11555203 -392.4375 182.625 C-387.7109122 176.85476781 -382.64905044 171.42012788 -377.55273438 165.97851562 C-376.00951894 164.3227134 -374.47929297 162.6558923 -372.953125 160.984375 C-364.73625189 151.99107308 -356.42880959 143.09641308 -347.1484375 135.1796875 C-344.96780107 133.2845162 -342.84587519 131.33280926 -340.72875977 129.3671875 C-334.68155233 123.75773926 -328.45601828 118.45114158 -322 113.3125 C-320.93226156 112.45186027 -319.86455445 111.59118166 -318.796875 110.73046875 C-309.8055638 103.52883558 -300.49167463 96.83690912 -291 90.3125 C-290.36449219 89.87550781 -289.72898437 89.43851562 -289.07421875 88.98828125 C-273.98172013 78.66183483 -258.3421604 69.25332854 -242.26660156 60.54199219 C-240.763576 59.7266931 -239.26288656 58.90707151 -237.76464844 58.08300781 C-165.5135453 18.38425354 -82.05731356 -0.23261947 0 0 Z M-964 1891.3125 C-964 1955.3325 -964 2019.3525 -964 2085.3125 C-933.97 2085.3125 -903.94 2085.3125 -873 2085.3125 C-873 2021.2925 -873 1957.2725 -873 1891.3125 C-903.03 1891.3125 -933.06 1891.3125 -964 1891.3125 Z M-758 1891.3125 C-758 1955.3325 -758 2019.3525 -758 2085.3125 C-726.32 2085.3125 -694.64 2085.3125 -662 2085.3125 C-662 2021.2925 -662 1957.2725 -662 1891.3125 C-693.68 1891.3125 -725.36 1891.3125 -758 1891.3125 Z " fill="#484848" transform="translate(1509,172.6875)"/>
<path d="M0 0 C2.60149173 0.31675763 5.20290576 0.60565553 7.80957031 0.87548828 C16.71506225 1.8581022 25.4254654 3.55021062 34.18847656 5.37548828 C37.14337824 5.98977098 40.09747921 6.57148359 43.07128906 7.08642578 C104.77977803 17.82662623 165.79808628 44.23762078 218.05175781 78.37158203 C219.64310547 79.39832031 219.64310547 79.39832031 221.26660156 80.44580078 C235.56544334 89.80183306 249.17493801 100.03046665 262.31640625 110.94042969 C263.85336146 112.20796366 265.40833947 113.4535741 266.96582031 114.69580078 C274.37885682 120.61092283 281.23909512 127.05146587 288.12451172 133.56201172 C290.02832158 135.3495768 291.94831003 137.11760734 293.87597656 138.87939453 C299.35955453 143.89646882 304.72193207 148.83829114 309.48925781 154.55908203 C311.20545259 156.54986797 313.03916348 158.35547502 314.92675781 160.18408203 C318.89510489 164.0911419 322.35422443 168.3167712 325.83691406 172.65673828 C327.82326758 175.09151022 329.87257388 177.42546987 331.98925781 179.74658203 C399.14512745 254.7020507 438.42430211 359.35985947 447.93005371 533.70892334 C447.38132925 542.27424867 446.46154534 550.8009007 445.42333984 559.31982422 C445.10658221 561.92131595 444.81768431 564.52272998 444.54785156 567.12939453 C443.56523764 576.03488647 441.87312922 584.74528961 440.04785156 593.50830078 C439.43356886 596.46320246 438.85185626 599.41730343 438.33691406 602.39111328 C427.59671361 664.09960225 401.18571907 725.1179105 367.05175781 777.37158203 C366.36726563 778.43248047 365.68277344 779.49337891 364.97753906 780.58642578 C355.62150679 794.88526756 345.3928732 808.49476222 334.48291016 821.63623047 C333.21537619 823.17318568 331.96976574 824.72816369 330.72753906 826.28564453 C324.81241702 833.69868103 318.37187398 840.55891934 311.86132812 847.44433594 C310.07376305 849.3481458 308.3057325 851.26813425 306.54394531 853.19580078 C301.52687103 858.67937875 296.58504871 864.04175629 290.86425781 868.80908203 C288.87347187 870.52527681 287.06786482 872.3589877 285.23925781 874.24658203 C281.33219794 878.21492911 277.10656864 881.67404865 272.76660156 885.15673828 C270.33182962 887.14309179 267.99786997 889.1923981 265.67675781 891.30908203 C244.41824128 910.35551307 219.62427926 926.01299929 195.05175781 940.37158203 C194.34277344 940.78875488 193.63378906 941.20592773 192.90332031 941.63574219 C158.96459897 961.49021926 122.5703084 975.91871964 85.05175781 987.37158203 C84.0847998 987.67290039 83.1178418 987.97421875 82.12158203 988.28466797 C47.82654394 998.94419107 11.39979908 1004.84018493 -24.44824219 1006.49658203 C-25.32630524 1006.53860748 -26.20436829 1006.58063293 -27.10903931 1006.62393188 C-41.06665685 1007.28692149 -54.97454335 1007.68307573 -68.94824219 1007.37158203 C-70.07697754 1007.35224609 -71.20571289 1007.33291016 -72.36865234 1007.31298828 C-88.09886961 1007.02525331 -103.49944166 1006.00480387 -119.07177734 1003.77001953 C-121.95821449 1003.3702007 -124.84665818 1003.01973892 -127.74121094 1002.68408203 C-140.46521429 1001.1869508 -152.83700609 998.86740643 -165.31445312 995.97265625 C-167.72152157 995.42332342 -170.13198749 994.90626545 -172.54980469 994.40673828 C-246.53292794 979.01255445 -318.2561267 941.91806978 -376.21289062 893.80273438 C-377.74984584 892.53520041 -379.30482385 891.28958996 -380.86230469 890.04736328 C-388.27534119 884.13224123 -395.1355795 877.69169819 -402.02099609 871.18115234 C-403.92480596 869.39358727 -405.8447944 867.62555672 -407.77246094 865.86376953 C-413.2560389 860.84669525 -418.61841644 855.90487292 -423.38574219 850.18408203 C-425.10193696 848.19329609 -426.93564785 846.38768904 -428.82324219 844.55908203 C-432.79158927 840.65202216 -436.25070881 836.42639286 -439.73339844 832.08642578 C-441.71975195 829.65165384 -443.76905825 827.31769419 -445.88574219 824.99658203 C-464.93217322 803.7380655 -480.58965944 778.94410348 -494.94824219 754.37158203 C-495.57400146 753.30810547 -495.57400146 753.30810547 -496.21240234 752.22314453 C-516.06687941 718.28442319 -530.4953798 681.89013262 -541.94824219 644.37158203 C-542.24956055 643.40462402 -542.55087891 642.43766602 -542.86132812 641.44140625 C-553.52085122 607.14636816 -559.41684509 570.7196233 -561.07324219 534.87158203 C-561.11526764 533.99351898 -561.15729309 533.11545593 -561.20059204 532.21078491 C-561.86358165 518.25316737 -562.25973588 504.34528087 -561.94824219 490.37158203 C-561.92890625 489.24284668 -561.90957031 488.11411133 -561.88964844 486.95117188 C-561.60191346 471.22095461 -560.58146403 455.82038256 -558.34667969 440.24804688 C-557.94686086 437.36160973 -557.59639907 434.47316604 -557.26074219 431.57861328 C-555.76361095 418.85460993 -553.44406659 406.48281813 -550.54931641 394.00537109 C-549.99998358 391.59830265 -549.4829256 389.18783673 -548.98339844 386.77001953 C-533.58921461 312.78689628 -496.49472994 241.06369752 -448.37939453 183.10693359 C-447.11186056 181.56997838 -445.86625011 180.01500037 -444.62402344 178.45751953 C-439.238878 171.70866813 -433.43275097 165.42334193 -427.50683594 159.15283203 C-425.22389995 156.7371313 -422.9648926 154.30362481 -420.73339844 151.84033203 C-415.45528234 146.01828794 -410.10517287 140.52545009 -404.17480469 135.34814453 C-402.19415423 133.5898829 -400.34717606 131.77764373 -398.51074219 129.87158203 C-394.83607684 126.12774651 -390.78190752 122.90626937 -386.69824219 119.62158203 C-384.2538292 117.62160777 -381.90641568 115.56138728 -379.57324219 113.43408203 C-304.61777352 46.2782124 -199.95996475 6.99903773 0 0 Z " fill="#8EAADC" transform="translate(757.9482421875,390.62841796875)"/>
<path d="M0 0 C1.21155762 0.21060059 2.42311523 0.42120117 3.67138672 0.63818359 C16.82357803 2.9525488 29.79592582 5.70112002 42.64746094 9.33642578 C45.13885851 10.03916744 47.63543035 10.72119703 50.1328125 11.40234375 C118.02279165 30.1141582 182.06049634 63.73929561 236 109 C236.61359375 109.51449707 237.2271875 110.02899414 237.859375 110.55908203 C239.66110279 112.07544 241.45719664 113.59810403 243.25 115.125 C244.00845215 115.76997437 244.00845215 115.76997437 244.78222656 116.42797852 C254.74193956 124.99565961 264.23311924 134.0464523 273.51928711 143.33398438 C275.1917165 145.00421095 276.87203669 146.66622379 278.55273438 148.328125 C284.41618786 154.16183169 289.92052376 160.07436241 295.04833984 166.57470703 C297.08461633 169.10515119 299.23157957 171.49182038 301.4375 173.875 C320.2613247 194.61696919 335.69383706 219.00399268 350 243 C350.46631836 243.7748877 350.93263672 244.54977539 351.41308594 245.34814453 C368.07839333 273.15987749 382.93077569 303.61498824 392.0234375 334.78515625 C392.88646421 337.62624019 393.89063897 340.27609402 395.0625 343 C397.10462341 347.86651183 398.33079598 352.90185248 399.51782227 358.02929688 C400.31862277 361.45085994 401.2341367 364.74842229 402.40625 368.0625 C404.6175038 374.55082974 405.98865032 381.24653497 407.4375 387.9375 C407.58996185 388.63542664 407.74242371 389.33335327 407.89950562 390.0524292 C410.6654337 402.76755532 412.84380649 415.5245149 414.63427734 428.41503906 C414.93612558 430.5485298 415.27038309 432.6774085 415.61328125 434.8046875 C423.41749666 483.53635322 420.56375651 536.56726829 412 585 C411.68409912 586.81733643 411.68409912 586.81733643 411.36181641 588.67138672 C409.0474512 601.82357803 406.29887998 614.79592582 402.66357422 627.64746094 C401.96083256 630.13885851 401.27880297 632.63543035 400.59765625 635.1328125 C381.8858418 703.02279165 348.26070439 767.06049634 303 821 C302.48550293 821.61359375 301.97100586 822.2271875 301.44091797 822.859375 C299.92456 824.66110279 298.40189597 826.45719664 296.875 828.25 C296.44501709 828.75563477 296.01503418 829.26126953 295.57202148 829.78222656 C287.00434039 839.74193956 277.9535477 849.23311924 268.66601562 858.51928711 C266.99578905 860.1917165 265.33377621 861.87203669 263.671875 863.55273438 C257.83816831 869.41618786 251.92563759 874.92052376 245.42529297 880.04833984 C242.89484881 882.08461633 240.50817962 884.23157957 238.125 886.4375 C212.96682383 909.26913636 182.74568051 927.80557674 153 944 C152.22881836 944.42249023 151.45763672 944.84498047 150.66308594 945.28027344 C129.77063291 956.67086212 108.1036783 965.87479122 85.75146484 973.98876953 C83.18339683 974.93259719 80.63125619 975.90893016 78.08203125 976.90234375 C66.92569574 981.21586335 55.6377407 984.37494438 44.02856445 987.23193359 C40.58771891 988.10455754 37.16914937 989.04837401 33.74609375 989.98828125 C26.16206375 992.01743871 18.53586224 993.58525327 10.8125 995 C10.12347595 995.12628784 9.4344519 995.25257568 8.72454834 995.38269043 C4.47760937 996.15795134 0.22753906 996.91371803 -4.02545166 997.6550293 C-5.85797088 997.97518628 -7.68952754 998.30083946 -9.52099609 998.62695312 C-57.01978245 1006.91203338 -109.59233295 1007.46635339 -157.13183594 999.47705078 C-160.46264986 998.92304922 -163.79751548 998.39741925 -167.1328125 997.87109375 C-188.46212745 994.46596126 -209.0661088 990.15507481 -229.66796875 983.6484375 C-233.31681521 982.49772493 -236.97722227 981.45546178 -240.67578125 980.4765625 C-244.50016947 979.44861708 -248.17309551 978.26999272 -251.85839844 976.82666016 C-254.43169146 975.8333667 -257.02982559 974.92434874 -259.6328125 974.01171875 C-313.10737723 954.99429748 -364.05406247 926.0252954 -407.37353516 889.31201172 C-409.17119817 887.81364794 -409.17119817 887.81364794 -412.01171875 886.06640625 C-414 884 -414 884 -414.078125 881.0859375 C-412.7362472 875.16088554 -410.65862266 869.38497107 -408.75 863.625 C-407.92258146 861.08696932 -407.10038246 858.54726965 -406.27734375 856.0078125 C-405.88144043 854.7899707 -405.48553711 853.57212891 -405.07763672 852.31738281 C-400.26657212 837.50706432 -396.77535828 822.60920893 -393.68017578 807.34033203 C-393.09391543 804.46121713 -392.4853893 801.58805383 -391.87109375 798.71484375 C-386.61703304 773.14089178 -384.379398 746.08604467 -384 720 C-383.98485352 719.02627441 -383.96970703 718.05254883 -383.95410156 717.04931641 C-383.62688034 691.52207094 -383.75447302 665.58615852 -387.64794922 640.3125 C-388.06953067 637.54327702 -388.47356168 634.77164559 -388.87890625 632 C-390.70994948 619.62233136 -392.73925928 607.34861398 -395.51318359 595.14550781 C-395.98513543 593.06551145 -396.44080564 590.98247376 -396.89453125 588.8984375 C-413.28831217 515.0023623 -448.65527608 444.80383931 -496 386 C-496.78117187 385.02417969 -497.56234375 384.04835938 -498.3671875 383.04296875 C-502.72000868 377.65842352 -507.22176677 372.4481703 -511.88671875 367.33203125 C-513.77376537 365.24965264 -515.61058233 363.13496936 -517.4375 361 C-521.71035241 356.08970574 -526.36656502 351.56639171 -531 347 C-533.92495823 344.08492338 -536.83614024 341.15655584 -539.7421875 338.22265625 C-541.11973939 336.83588557 -542.49734472 335.44916797 -543.875 334.0625 C-544.55691406 333.37220703 -545.23882813 332.68191406 -545.94140625 331.97070312 C-550.1336695 327.75847672 -554.43610255 323.80721993 -559 320 C-550.52915659 269.64037051 -508.11112204 214.2684717 -476 176 C-475.48550293 175.38640625 -474.97100586 174.7728125 -474.44091797 174.140625 C-472.92456 172.33889721 -471.40189597 170.54280336 -469.875 168.75 C-469.44501709 168.24436523 -469.01503418 167.73873047 -468.57202148 167.21777344 C-460.00434039 157.25806044 -450.9535477 147.76688076 -441.66601562 138.48071289 C-439.99578905 136.8082835 -438.33377621 135.12796331 -436.671875 133.44726562 C-430.83816831 127.58381214 -424.92563759 122.07947624 -418.42529297 116.95166016 C-415.89484881 114.91538367 -413.50817962 112.76842043 -411.125 110.5625 C-390.38303081 91.7386753 -365.99600732 76.30616294 -342 62 C-341.2251123 61.53368164 -340.45022461 61.06736328 -339.65185547 60.58691406 C-311.84012251 43.92160667 -281.38501176 29.06922431 -250.21484375 19.9765625 C-247.37375981 19.11353579 -244.72390598 18.10936103 -242 16.9375 C-237.13348817 14.89537659 -232.09814752 13.66920402 -226.97070312 12.48217773 C-223.54914006 11.68137723 -220.25157771 10.7658633 -216.9375 9.59375 C-210.44917026 7.3824962 -203.75346503 6.01134968 -197.0625 4.5625 C-196.01561005 4.33380722 -196.01561005 4.33380722 -194.9475708 4.10049438 C-182.23244468 1.3345663 -169.4754851 -0.84380649 -156.58496094 -2.63427734 C-154.4514702 -2.93612558 -152.3225915 -3.27038309 -150.1953125 -3.61328125 C-101.46364678 -11.41749666 -48.43273171 -8.56375651 0 0 Z " fill="#FEFE01" transform="translate(1596,187)"/>
<path d="M0 0 C1.86781914 0.40565639 3.73574022 0.81084366 5.60375977 1.21557617 C18.07740987 3.92349347 30.53775806 6.6913575 42.99609375 9.46875 C44.91405071 9.89588627 46.83201903 10.32297157 48.75 10.75 C50.12696045 11.05744141 50.12696045 11.05744141 51.53173828 11.37109375 C59.66040708 13.17648127 67.54678498 14.8782303 75.87304688 15.39819336 C79.19609399 15.80455036 82.23289793 16.63798376 85.453125 17.5546875 C94.13195674 19.95290665 102.91273766 21.67473249 111.75 23.375 C114.0741757 23.82462165 116.39801262 24.27581449 118.72119141 24.7305603 C120.14864033 25.00976431 121.57666348 25.28605632 123.00537109 25.55874634 C127.33289223 26.40251935 131.51695118 27.52541718 135.75 28.75 C138.24914175 29.33707161 140.7535191 29.90213825 143.26171875 30.44921875 C143.97486237 30.60486298 144.68800598 30.7605072 145.42276001 30.92086792 C147.76035604 31.42946767 150.09883348 31.93384698 152.4375 32.4375 C153.24867279 32.61296356 154.05984558 32.78842712 154.89559937 32.96920776 C166.92376821 35.56712085 178.97658313 37.99958313 191.0625 40.3125 C202.1775544 42.44542172 213.28084621 44.62205576 224.34823608 46.9916687 C225.71715579 47.28378462 227.08678821 47.57258483 228.45718384 47.85769653 C243.11041598 50.91526342 256.90451699 55.93397598 265.75 68.75 C273.1389026 82.17545964 274.0796567 94.2624306 270.85180664 109.12597656 C270.54548498 110.60109947 270.54548498 110.60109947 270.23297501 112.10602283 C269.55246543 115.36984036 268.85634167 118.63011834 268.16015625 121.890625 C267.66718699 124.23917354 267.17520316 126.58792911 266.68412781 128.93687439 C265.48963281 134.63830961 264.28509411 140.33755434 263.07607907 146.03592664 C261.65874104 152.718962 260.25397789 159.40462179 258.8500526 166.09048545 C256.50078004 177.27725962 254.14411649 188.4624586 251.78162122 199.6464473 C248.30350382 216.1118358 244.84483044 232.58124739 241.3942337 249.052423 C225.11967606 326.73169792 225.11967606 326.73169792 218.29296875 358.66015625 C218.13038952 359.42085608 217.96781029 360.1815559 217.80030441 360.96530724 C216.23992558 368.26505791 214.67451174 375.56368361 213.09863281 382.86010742 C212.86163162 383.96257309 212.62463043 385.06503876 212.38044739 386.20091248 C211.95423619 388.18337443 211.5256551 390.16532927 211.09403992 392.1466217 C210.82307243 393.40967384 210.82307243 393.40967384 210.54663086 394.69824219 C210.39109238 395.41631042 210.23555389 396.13437866 210.07530212 396.87420654 C209.66456467 398.92534813 209.66456467 398.92534813 209.75 401.75 C211.9349346 403.2188636 214.07276101 404.49050682 216.375 405.75 C227.28512776 412.0011378 237.14355642 419.54924957 245.75 428.75 C246.53761719 429.53632812 247.32523438 430.32265625 248.13671875 431.1328125 C277.59910616 460.63923936 294.81826346 500.88027671 295.04516602 542.61645508 C295.05651083 544.0537311 295.07667234 545.4909712 295.10668945 546.92797852 C295.29006029 555.76153554 294.6962115 564.20784815 293.12182617 572.90698242 C292.94677299 573.89160084 292.77171982 574.87621925 292.591362 575.89067459 C290.25091958 588.81485212 287.52847295 601.66350372 284.82213593 614.5148592 C284.05777408 618.14877491 283.29796407 621.78364259 282.53759766 625.418396 C281.10065335 632.28405937 279.65976725 639.14888892 278.21737862 646.01341033 C276.58856064 653.7661681 274.96431309 661.51988113 273.34039688 669.27366686 C268.48935103 692.43505256 263.62917215 715.59452145 258.75 738.75 C255.30683416 739.89927191 252.87821823 739.59438429 249.34764099 738.87214661 C248.25051788 738.65211975 247.15339478 738.4320929 246.02302551 738.20539856 C244.22389961 737.83072701 244.22389961 737.83072701 242.38842773 737.44848633 C241.12113831 737.19171112 239.85384888 736.93493591 238.54815674 736.67037964 C235.06832612 735.96507943 231.59078588 735.24902535 228.11355472 734.53103471 C224.45749982 733.77800228 220.79945315 733.03477246 217.14161682 732.29045105 C210.19307342 730.87494316 203.24639987 729.45046645 196.30033404 728.02285641 C188.47143811 726.41428707 180.64041836 724.81618263 172.80923927 723.21877253 C156.8902848 719.97103479 140.97277811 716.71632228 125.06141281 713.4315834 C121.97271309 712.79584072 118.88280775 712.16634619 115.79251099 711.53842163 C114.07395357 711.18556528 112.3554341 710.832524 110.63696289 710.47924805 C109.8903688 710.32943135 109.1437747 710.17961466 108.37455654 710.02525806 C105.59903697 709.4500716 102.97415985 708.84130009 100.34475422 707.77034569 C97.78092217 706.76215965 95.36712046 706.13550794 92.67251587 705.57676697 C91.66835003 705.36619943 90.66418419 705.15563189 89.62958908 704.93868351 C88.53446629 704.71391551 87.43934349 704.48914751 86.31103516 704.25756836 C85.14299976 704.01401076 83.97496437 703.77045317 82.77153397 703.51951504 C79.54224194 702.8470551 76.31214953 702.17869826 73.08166265 701.51201773 C69.61965903 700.79647492 66.15878194 700.07552352 62.69778442 699.35513306 C56.7274431 698.11313156 50.75645939 696.87426093 44.78503418 695.63748169 C35.28045881 693.66881214 25.77729487 691.69338374 16.27441406 689.71655273 C14.66448998 689.38167111 13.05456566 689.0467906 11.44464111 688.7119112 C9.02055805 688.20767473 6.59647686 687.7034293 4.17240238 687.19915158 C-0.71994614 686.18143612 -5.61239459 685.16420269 -10.50492382 684.14735633 C-40.51206598 677.91072461 -70.50833141 671.62314879 -100.5 665.3125 C-108.83911154 663.55808184 -117.17826093 661.80384361 -125.5174675 660.04987717 C-127.95391912 659.53742121 -130.39036372 659.02493188 -132.8268013 658.51240921 C-152.43283306 654.38846667 -172.04179796 650.27864519 -191.65194297 646.17431265 C-197.4956831 644.95122225 -203.33933291 643.72770111 -209.18292236 642.50389099 C-210.00402725 642.33193181 -210.82513213 642.15997263 -211.67111897 641.98280257 C-214.97765513 641.29032853 -218.28418933 640.59784522 -221.59071398 639.90531623 C-231.32936705 637.8656443 -241.06833483 635.82749033 -250.80783343 633.79185951 C-256.89042263 632.52041422 -262.97262548 631.2471319 -269.0545361 629.97244465 C-272.58536822 629.23250115 -276.116378 628.49343309 -279.6478653 627.75662231 C-283.50475394 626.95190863 -287.3608087 626.14324665 -291.21679688 625.33422852 C-292.34212955 625.10011041 -293.46746223 624.8659923 -294.6268959 624.6247797 C-299.90303623 623.51444912 -305.09215467 622.32383479 -310.25 620.75 C-309.55650372 613.02515814 -308.07880608 605.5658799 -306.4777832 597.98217773 C-306.1914585 596.61101452 -305.90549347 595.23977615 -305.61985779 593.86846924 C-304.84665949 590.16212184 -304.06811612 586.45691664 -303.28832269 582.75195193 C-302.63337475 579.63754196 -301.9811572 576.52256281 -301.32894486 573.407579 C-299.78533672 566.03532614 -298.23747357 558.66397579 -296.68676758 551.29321289 C-295.10066642 543.75392314 -293.52091048 536.21332508 -291.94452029 528.67199939 C-290.58139867 522.15187819 -289.21456886 515.63254177 -287.84484929 509.11380345 C-287.0311948 505.2414211 -286.21872569 501.36880178 -285.40969276 497.49545097 C-282.45873288 483.3752709 -279.48304381 469.26672387 -276.01635742 455.26196289 C-275.78579556 454.3244667 -275.55523371 453.3869705 -275.31768513 452.42106533 C-264.60933894 410.19547023 -236.7093757 374.49290808 -199.54296875 352.19921875 C-182.15773777 342.10029736 -159.75387975 331.75 -139.25 331.75 C-139.29221176 330.4883905 -139.33442352 329.22678101 -139.37791443 327.92694092 C-139.37042873 322.41295205 -138.3618795 317.2928042 -137.20336914 311.91894531 C-136.872211 310.32996603 -136.872211 310.32996603 -136.53436279 308.70888615 C-135.79318193 305.16344455 -135.03913099 301.62086609 -134.28515625 298.078125 C-133.7466415 295.51491091 -133.208939 292.95152606 -132.67198181 290.38798523 C-131.3571301 284.11774488 -130.03277629 277.84954803 -128.70529312 271.58197123 C-127.1475165 264.22522752 -125.59906838 256.86653051 -124.05137372 249.50766027 C-121.91248151 239.33819788 -119.77154108 229.16917049 -117.62539673 219.00123596 C-113.02422497 197.1998488 -108.45095753 175.39275884 -103.89558381 153.58175743 C-101.45334483 141.88892768 -99.00646553 130.19706865 -96.55927753 118.50527382 C-94.72377424 109.73528237 -92.89002534 100.96493143 -91.06033325 92.19372559 C-89.49380273 84.68442231 -87.92285206 77.17605919 -86.34651202 69.66880876 C-85.53848446 65.81997434 -84.73244196 61.97075296 -83.93183708 58.12036705 C-83.19392647 54.57170169 -82.45024599 51.02429382 -81.70221508 47.47774839 C-81.30763063 45.59984395 -80.91901047 43.72068924 -80.53068638 41.84148026 C-76.97300017 25.05382941 -72.74299461 11.16176733 -58.25 0.75 C-39.46678815 -10.35045452 -19.87357972 -4.36525487 0 0 Z " fill="#484848" transform="translate(1303.25,1158.25)"/>
<path d="M0 0 C427.02 0 854.04 0 1294 0 C1294 29.7 1294 59.4 1294 90 C866.98 90 439.96 90 0 90 C0 60.3 0 30.6 0 0 Z " fill="#305498" transform="translate(366,2265)"/>
<path d="M0 0 C37.95 0 75.9 0 115 0 C115 66.33 115 132.66 115 201 C146.35 201 177.7 201 210 201 C210 134.67 210 68.34 210 0 C247.95 0 285.9 0 325 0 C325 66.33 325 132.66 325 201 C356.35 201 387.7 201 420 201 C420 134.67 420 68.34 420 0 C457.95 0 495.9 0 535 0 C535 66.33 535 132.66 535 201 C559.42 201 583.84 201 609 201 C609 235.32 609 269.64 609 305 C177.36 305 -254.28 305 -699 305 C-699 270.68 -699 236.36 -699 201 C-607.59 201 -516.18 201 -422 201 C-422 202.65 -422 204.3 -422 206 C-384.05 206 -346.1 206 -307 206 C-307 204.35 -307 202.7 -307 201 C-275.32 201 -243.64 201 -211 201 C-211 202.65 -211 204.3 -211 206 C-173.05 206 -135.1 206 -96 206 C-96 204.35 -96 202.7 -96 201 C-64.32 201 -32.64 201 0 201 C0 134.67 0 68.34 0 0 Z M-692 208 C-692 237.7 -692 267.4 -692 298 C-264.98 298 162.04 298 602 298 C602 268.3 602 238.6 602 208 C174.98 208 -252.04 208 -692 208 Z " fill="#104862" transform="translate(1058,2057)"/>
<path d="M0 0 C0.84127441 0.14244141 1.68254883 0.28488281 2.54931641 0.43164062 C26.99613543 4.598099 63.64049165 11.44512729 79.25 33.125 C84.10049254 42.65021451 84.44974647 53.03632934 84.3125 63.5 C84.31733398 65.34271484 84.31733398 65.34271484 84.32226562 67.22265625 C84.19052917 89.80947083 84.19052917 89.80947083 76 98 C69.31848506 98.48104816 64.21173527 95.89075923 58.6875 92.5 C27.75011527 74.56327632 -6.78088738 63.81075601 -42.5871582 63.81469727 C-44.79853677 63.81251379 -47.00941238 63.79429474 -49.22070312 63.77539062 C-71.30329029 63.68607472 -91.73851784 68.15604651 -111 79 C-111.94488281 79.51691406 -112.88976562 80.03382813 -113.86328125 80.56640625 C-141.27073332 96.20953986 -159.00747971 123.26954099 -167.609375 153.11425781 C-172.08586778 169.71206464 -173.38736987 186.01518292 -173.3125 203.125 C-173.31001251 204.03207703 -173.30752502 204.93915405 -173.30496216 205.87371826 C-173.1361307 245.65391864 -162.93272142 283.3093934 -134 312 C-109.81309579 334.79643165 -77.1618999 342.07159059 -44.8515625 341.31640625 C-31.52156006 340.80652543 -19.79361293 338.45614516 -7.453125 333.40234375 C-4.3503076 332.14226293 -1.1770665 331.05902217 2 330 C2 299.31 2 268.62 2 237 C-23.77406552 237.19785438 -23.77406552 237.19785438 -49.54760742 237.45043945 C-54.53967285 237.47302246 -54.53967285 237.47302246 -56.87886047 237.47721863 C-58.50787691 237.48488198 -60.13686549 237.50243782 -61.76570129 237.52787781 C-64.23777293 237.56454798 -66.70811655 237.56952827 -69.18041992 237.56762695 C-69.90253001 237.58561749 -70.6246401 237.60360804 -71.36863232 237.62214375 C-75.28002459 237.58194811 -76.85764802 237.11731393 -79.91801453 234.5952301 C-86.07305686 226.92286574 -85.47248592 216.96674223 -85.39111328 207.5859375 C-85.37497649 205.37177419 -85.39106066 203.15942185 -85.41015625 200.9453125 C-85.42661293 191.35106718 -85.07596176 183.28489281 -78 176 C-75.2344017 175.36800098 -75.2344017 175.36800098 -71.99212646 175.35835266 C-70.76130844 175.34280838 -69.53049042 175.3272641 -68.26237488 175.31124878 C-66.90115043 175.31937543 -65.53992904 175.32802963 -64.17871094 175.3371582 C-62.74283009 175.32874417 -61.30696029 175.31821866 -59.87110901 175.30574036 C-55.97197722 175.27866262 -52.07348455 175.28340185 -48.17430019 175.29544091 C-44.91654571 175.30257126 -41.65890952 175.29407309 -38.40116429 175.28553551 C-30.71150786 175.26557226 -23.02216218 175.27116176 -15.33251953 175.29321289 C-7.40931421 175.31554837 0.51307514 175.29801554 8.43620324 175.26016361 C15.24490818 175.22888262 22.05336115 175.22102871 28.86212897 175.23211735 C32.92580092 175.23859352 36.98900273 175.23665602 41.05261993 175.21279335 C44.87791876 175.19147532 48.7020725 175.19960274 52.52729988 175.22988701 C53.92685971 175.23619336 55.32650923 175.23240436 56.72600365 175.21747589 C64.26338919 175.1436278 69.70850501 175.30609029 75.52216721 180.42126751 C81.33044649 186.62610967 83.24489385 192.78780146 83.26742554 201.16383362 C83.27195665 201.86215882 83.27648776 202.56048402 83.28115618 203.27997059 C83.2937644 205.60802065 83.29218213 207.93583569 83.29052734 210.26391602 C83.29651507 211.93827107 83.30332118 213.61262336 83.31088257 215.28697205 C83.32853068 219.82868189 83.33323761 224.37031634 83.33451414 228.91205716 C83.33593763 231.75416865 83.34021111 234.59626109 83.34550858 237.43836784 C83.36400899 247.36720873 83.37217968 257.29599597 83.37060547 267.22485352 C83.36940593 276.45655906 83.39047127 285.6880301 83.4220928 294.91967636 C83.44832171 302.86219644 83.45896991 310.80464028 83.45769465 318.74720329 C83.45718671 323.48328677 83.46277577 328.21916204 83.48405075 332.9552021 C83.50354342 337.41636855 83.50348294 341.87713068 83.48901749 346.33831215 C83.48694148 347.96638333 83.49155735 349.59448054 83.5037384 351.22250748 C83.66762189 374.66384246 83.66762189 374.66384246 75.6875 382.9375 C65.6919701 390.42029041 51.84848898 393.58063741 40 397 C39.29987793 397.2047998 38.59975586 397.40959961 37.87841797 397.62060547 C16.7974172 403.7151128 -4.74022317 407.43650837 -26.63598633 408.78222656 C-29.08730229 408.97368969 -29.08730229 408.97368969 -31.82666016 409.50976562 C-38.33209195 410.51475924 -44.98958746 410.24503194 -51.5625 410.25 C-52.36078217 410.25067474 -53.15906433 410.25134949 -53.98153687 410.25204468 C-106.22680356 410.18232438 -158.40023399 397.69077623 -198 362 C-199.45772951 360.77011729 -200.91598215 359.54085407 -202.375 358.3125 C-232.8246257 331.3858651 -251.42044081 286.67805689 -256 247 C-256.10006348 246.16049805 -256.20012695 245.32099609 -256.30322266 244.45605469 C-259.23587001 218.49173434 -259.51686366 191.99687743 -255.75 166.125 C-255.64767059 165.4152301 -255.54534119 164.70546021 -255.43991089 163.97418213 C-250.30983203 129.29414037 -236.94660909 95.47217379 -215 68 C-213.94039062 66.63488281 -213.94039062 66.63488281 -212.859375 65.2421875 C-181.08801776 25.12799184 -132.47635581 3.85075038 -82.59790039 -2.48291016 C-55.23692591 -5.57195937 -27.114309 -4.998565 0 0 Z " fill="#000000" transform="translate(775,698)"/>
<path d="M0 0 C0.81203888 -0.00012085 1.62407776 -0.0002417 2.46072388 -0.00036621 C16.36299204 0.02900129 29.68112792 1.17682535 43.25 4.375 C44.26078613 4.60727295 44.26078613 4.60727295 45.29199219 4.84423828 C49.35809139 5.80996358 53.29582442 7.02718846 57.25 8.375 C57.94834961 8.61057617 58.64669922 8.84615234 59.36621094 9.08886719 C83.48657711 17.3147687 114.63881707 29.45007545 128.4765625 52.41015625 C134.14444957 66.80887945 124.6806346 91.33898709 119.18359375 105.03125 C117.51153222 108.65077144 116.00419665 111.76605858 112.25 113.375 C106.19814195 113.17010033 103.02092342 111.07121207 98.75 107.0625 C97.52128237 105.96418365 96.29075393 104.86789037 95.05859375 103.7734375 C94.43065918 103.20979492 93.80272461 102.64615234 93.15576172 102.06542969 C70.5746899 82.03579334 43.38495451 66.34771704 12.5625 66.0625 C11.53705078 66.03349609 10.51160156 66.00449219 9.45507812 65.97460938 C-0.92948526 65.88932869 -9.67794345 68.59447471 -17.68359375 75.33984375 C-26.16295312 83.69097084 -30.76792166 93.91776266 -31.3125 105.8125 C-30.70869702 122.13465794 -20.42025336 135.63516285 -8.98828125 146.45703125 C-4.18001151 150.86207354 0.93117785 154.84730825 6.13183594 158.77490234 C8.54502339 160.59786575 10.94850674 162.43323392 13.3515625 164.26953125 C19.90079805 169.27013257 26.45723284 174.26122871 33.02734375 179.234375 C43.27369901 187.01599716 53.36227168 195.04288526 62.25 204.375 C63.075 205.2 63.9 206.025 64.75 206.875 C65.575 207.7 66.4 208.525 67.25 209.375 C67.99830078 210.05369141 67.99830078 210.05369141 68.76171875 210.74609375 C81.82312448 222.95500679 91.19116805 240.34115522 96.25 257.375 C96.54777344 258.34566406 96.84554688 259.31632812 97.15234375 260.31640625 C104.96498864 290.23487586 96.69953299 323.73516782 81.84765625 350.06640625 C64.95021633 378.73339559 37.87688444 395.86121132 6.25 404.375 C-17.18875763 410.29461944 -45.22766556 409.26484596 -68.75 404.375 C-69.61334961 404.19807617 -70.47669922 404.02115234 -71.36621094 403.83886719 C-77.54669827 402.5390117 -83.65809068 401.04004949 -89.75 399.375 C-90.49781738 399.17068359 -91.24563477 398.96636719 -92.01611328 398.75585938 C-115.99159139 391.97491607 -139.87939478 379.72313854 -158.75 363.375 C-159.62527344 362.6325 -160.50054688 361.89 -161.40234375 361.125 C-168.06776993 355.33067945 -175.07214487 349.06383523 -176.015625 339.75390625 C-175.9498283 327.89405179 -174.0883413 316.950084 -170.9375 305.5625 C-170.70144043 304.69117432 -170.46538086 303.81984863 -170.22216797 302.92211914 C-168.07800646 295.50224753 -165.52501653 287.69925086 -158.75 283.375 C-154.61435524 282.50939993 -152.10594816 283.49110954 -148.625 285.625 C-144.71268142 288.40085208 -141.39469722 291.6324738 -138.0625 295.0625 C-113.45457893 320.34037084 -77.38089693 340.03994634 -41.5625 340.8125 C-26.04254492 340.33041723 -12.21249571 337.26032319 -0.52734375 326.33984375 C9.14540485 315.64667332 12.18802297 302.55318216 11.62890625 288.515625 C11.26754594 283.43619048 9.98998534 279.66438181 7.25 275.375 C6.775625 274.53195312 6.30125 273.68890625 5.8125 272.8203125 C-4.86945091 254.69180928 -22.03055848 242.54595002 -38.59765625 230.22265625 C-50.03930928 221.70126678 -61.29329623 213.0903703 -71.75 203.375 C-73.12108139 202.18297774 -74.4959531 200.99529791 -75.875 199.8125 C-98.46901311 179.97495649 -113.28543233 153.43424903 -116.75 123.375 C-117.43749829 112.43175617 -116.6644849 102.00387977 -114.19873047 91.33398438 C-113.75086298 89.37876744 -113.34464017 87.41797392 -112.94140625 85.453125 C-109.63284445 70.12067288 -103.19251097 55.91723469 -93.75 43.375 C-93.03972656 42.43140625 -92.32945313 41.4878125 -91.59765625 40.515625 C-74.06647455 18.20881383 -49.07520941 5.24837156 -21.28808594 0.78735352 C-14.21131508 -0.03742333 -7.11703045 -0.01628011 0 0 Z " fill="#000000" transform="translate(1533.75,482.625)"/>
<path d="M0 0 C1.3528136 0.00192478 2.70562733 0.00376516 4.05844116 0.00552368 C24.19442884 0.04354487 44.02615032 0.57014442 64 3.3125 C65.27230469 3.47878906 66.54460937 3.64507812 67.85546875 3.81640625 C133.45763938 12.55904498 196.33748559 33.84373118 254 66.3125 C254.75522949 66.73644043 255.51045898 67.16038086 256.28857422 67.59716797 C268.60044285 74.55044502 280.33186158 82.3356952 292 90.3125 C292.76908691 90.83634277 293.53817383 91.36018555 294.33056641 91.89990234 C304.36434378 98.7604728 313.89646923 106.08450472 323.23974609 113.85644531 C325.69949478 115.89111121 328.19694797 117.87823325 330.6875 119.875 C336.45773219 124.6015878 341.89237212 129.66344956 347.33398438 134.75976562 C348.9897866 136.30298106 350.6566077 137.83320703 352.328125 139.359375 C361.32142692 147.57624811 370.21608692 155.88369041 378.1328125 165.1640625 C380.0279838 167.34469893 381.97969074 169.46662481 383.9453125 171.58374023 C389.55476074 177.63094767 394.86135842 183.85648172 400 190.3125 C400.86063973 191.38023844 401.72131834 192.44794555 402.58203125 193.515625 C409.78366442 202.5069362 416.47559088 211.82082537 423 221.3125 C423.43699219 221.94800781 423.87398437 222.58351563 424.32421875 223.23828125 C434.65066517 238.33077987 444.05917146 253.9703396 452.77050781 270.04589844 C453.5858069 271.548924 454.40542849 273.04961344 455.22949219 274.54785156 C494.92824646 346.7989547 513.54511947 430.25518644 513.3125 512.3125 C513.31057522 513.6653136 513.30873484 515.01812733 513.30697632 516.37094116 C513.26895513 536.50692884 512.74235558 556.33865032 510 576.3125 C509.83371094 577.58480469 509.66742187 578.85710938 509.49609375 580.16796875 C500.75345502 645.77013938 479.46876882 708.64998559 447 766.3125 C446.36408936 767.44534424 446.36408936 767.44534424 445.71533203 768.60107422 C438.76205498 780.91294285 430.9768048 792.64436158 423 804.3125 C422.21423584 805.46613037 422.21423584 805.46613037 421.41259766 806.64306641 C414.5520272 816.67684378 407.22799528 826.20896923 399.45605469 835.55224609 C397.42138879 838.01199478 395.43426675 840.50944797 393.4375 843 C388.7109122 848.77023219 383.64905044 854.20487212 378.55273438 859.64648438 C377.00951894 861.3022866 375.47929297 862.9691077 373.953125 864.640625 C365.73625189 873.63392692 357.42880959 882.52858692 348.1484375 890.4453125 C345.96780107 892.3404838 343.84587519 894.29219074 341.72875977 896.2578125 C335.68155233 901.86726074 329.45601828 907.17385842 323 912.3125 C321.93226156 913.17313973 320.86455445 914.03381834 319.796875 914.89453125 C310.8055638 922.09616442 301.49167463 928.78809088 292 935.3125 C291.04673828 935.96798828 291.04673828 935.96798828 290.07421875 936.63671875 C274.98172013 946.96316517 259.3421604 956.37167146 243.26660156 965.08300781 C241.763576 965.8983069 240.26288656 966.71792849 238.76464844 967.54199219 C168.14574019 1006.34392827 85.78169294 1025.5423075 5.4375 1025.9375 C4.30488739 1025.9443985 3.17227478 1025.951297 2.00534058 1025.95840454 C-18.66355631 1026.00379492 -37.94768144 1023.3339805 -57.95263672 1018.30224609 C-63.08298602 1017.01900208 -68.26469102 1016.0166877 -73.45727539 1015.0168457 C-74.29637451 1014.78441162 -75.13547363 1014.55197754 -76 1014.3125 C-76.33 1013.6525 -76.66 1012.9925 -77 1012.3125 C-73.74951545 1012.62008717 -70.4997183 1012.93442818 -67.25 1013.25 C-66.32960938 1013.33701172 -65.40921875 1013.42402344 -64.4609375 1013.51367188 C-63.57148437 1013.60068359 -62.68203125 1013.68769531 -61.765625 1013.77734375 C-60.94868164 1013.855896 -60.13173828 1013.93444824 -59.29003906 1014.01538086 C-57.12407493 1014.29640201 -55.11571437 1014.78318373 -53 1015.3125 C-7.36163409 1021.37205611 41.82823788 1018.29965989 87 1010.3125 C88.21155762 1010.10189941 89.42311523 1009.89129883 90.67138672 1009.67431641 C103.82357803 1007.3599512 116.79592582 1004.61137998 129.64746094 1000.97607422 C132.13885851 1000.27333256 134.63543035 999.59130297 137.1328125 998.91015625 C205.02279165 980.1983418 269.06049634 946.57320439 323 901.3125 C323.61359375 900.79800293 324.2271875 900.28350586 324.859375 899.75341797 C326.66110279 898.23706 328.45719664 896.71439597 330.25 895.1875 C331.00845215 894.54252563 331.00845215 894.54252563 331.78222656 893.88452148 C341.58801155 885.44925445 350.94922819 876.54997833 360.09204102 867.40576172 C361.69204519 865.80796107 363.29993615 864.21838449 364.90820312 862.62890625 C370.6476757 856.91982277 376.00755638 851.11408731 381.03076172 844.75537109 C383.07426014 842.22037913 385.22617471 839.8266833 387.4375 837.4375 C410.26913636 812.27932383 428.80557674 782.05818051 445 752.3125 C445.42249023 751.54131836 445.84498047 750.77013672 446.28027344 749.97558594 C457.67086212 729.08313291 466.87479122 707.4161783 474.98876953 685.06396484 C475.93259719 682.49589683 476.90893016 679.94375619 477.90234375 677.39453125 C482.21586335 666.23819574 485.37494438 654.9502407 488.23193359 643.34106445 C489.10455754 639.90021891 490.04837401 636.48164937 490.98828125 633.05859375 C493.01743871 625.47456375 494.58525327 617.84836224 496 610.125 C496.12628784 609.43597595 496.25257568 608.7469519 496.38269043 608.03704834 C497.15795134 603.79010937 497.91371803 599.54003906 498.6550293 595.28704834 C498.97518628 593.45452912 499.30083946 591.62297246 499.62695312 589.79150391 C507.72086782 543.38867942 508.49561994 491.81398928 501 445.3125 C500.74103563 443.48211634 500.48479607 441.65134622 500.23046875 439.8203125 C496.69537 414.90842472 491.38248212 390.37187661 484 366.3125 C483.61351904 365.01854658 483.22803413 363.72429505 482.84375 362.4296875 C481.33967244 357.42749015 479.72387242 352.52533414 477.8684082 347.64086914 C476.88282253 344.99832471 475.94698714 342.34045224 475.01171875 339.6796875 C455.68830122 285.34470026 426.04866673 234.46529704 389 190.3125 C388.22825439 189.39210938 388.22825439 189.39210938 387.44091797 188.453125 C385.92456 186.65139721 384.40189597 184.85530336 382.875 183.0625 C382.44501709 182.55686523 382.01503418 182.05123047 381.57202148 181.53027344 C373.13675445 171.72448845 364.23747833 162.36327181 355.09326172 153.22045898 C353.49546107 151.62045481 351.90588449 150.01256385 350.31640625 148.40429688 C344.60732277 142.6648243 338.80158731 137.30494362 332.44287109 132.28173828 C329.90787913 130.23823986 327.5141833 128.08632529 325.125 125.875 C299.96682383 103.04336364 269.74568051 84.50692326 240 68.3125 C239.22881836 67.89000977 238.45763672 67.46751953 237.66308594 67.03222656 C216.77063291 55.64163788 195.1036783 46.43770878 172.75146484 38.32373047 C170.18339683 37.37990281 167.63125619 36.40356984 165.08203125 35.41015625 C153.92569574 31.09663665 142.6377407 27.93755562 131.02856445 25.08056641 C127.58771891 24.20794246 124.16914937 23.26412599 120.74609375 22.32421875 C113.16206375 20.29506129 105.53586224 18.72724673 97.8125 17.3125 C97.12347595 17.18621216 96.4344519 17.05992432 95.72454834 16.92980957 C91.47760937 16.15454866 87.22753906 15.39878197 82.97454834 14.6574707 C81.14202912 14.33731372 79.31047246 14.01166054 77.47900391 13.68554688 C31.07617942 5.59163218 -20.49851072 4.81688006 -67 12.3125 C-68.83038366 12.57146437 -70.66115378 12.82770393 -72.4921875 13.08203125 C-97.40407528 16.61713 -121.94062339 21.93001788 -146 29.3125 C-147.29395342 29.69898096 -148.58820495 30.08446587 -149.8828125 30.46875 C-154.88500985 31.97282756 -159.78716586 33.58862758 -164.67163086 35.4440918 C-167.31417529 36.42967747 -169.97204776 37.36551286 -172.6328125 38.30078125 C-226.96779974 57.62419878 -277.84720296 87.26383327 -322 124.3125 C-322.61359375 124.82699707 -323.2271875 125.34149414 -323.859375 125.87158203 C-325.66110279 127.38794 -327.45719664 128.91060403 -329.25 130.4375 C-329.75563477 130.86748291 -330.26126953 131.29746582 -330.78222656 131.74047852 C-340.58801155 140.17574555 -349.94922819 149.07502167 -359.09204102 158.21923828 C-360.69204519 159.81703893 -362.29993615 161.40661551 -363.90820312 162.99609375 C-369.6476757 168.70517723 -375.00755638 174.51091269 -380.03076172 180.86962891 C-382.07426014 183.40462087 -384.22617471 185.7983167 -386.4375 188.1875 C-405.2613247 208.92946919 -420.69383706 233.31649268 -435 257.3125 C-435.69947754 258.47483154 -435.69947754 258.47483154 -436.41308594 259.66064453 C-448.34575724 279.5743647 -458.55026787 300.58489366 -467.5 322 C-467.87987061 322.89581787 -468.25974121 323.79163574 -468.65112305 324.71459961 C-468.98281494 325.53452393 -469.31450684 326.35444824 -469.65625 327.19921875 C-469.94306641 327.90264404 -470.22988281 328.60606934 -470.52539062 329.33081055 C-471.10271435 331.74137468 -470.9014992 333.01284096 -470 335.3125 C-468.02414228 337.34348444 -466.06336423 339.20354984 -463.9375 341.0625 C-462.74747011 342.12883969 -461.5586663 343.19654927 -460.37109375 344.265625 C-459.50266846 345.04389648 -459.50266846 345.04389648 -458.61669922 345.83789062 C-456.50717202 347.76201389 -454.49748281 349.77284385 -452.5 351.8125 C-450.52767956 353.82187865 -448.66387316 355.5748429 -446.4375 357.3125 C-443.59699891 359.64316756 -441.38997937 362.25980728 -439.01171875 365.05078125 C-436.81358938 367.52207621 -434.49271882 369.81601529 -432.125 372.125 C-427.79371363 376.40378593 -423.94131203 380.91368108 -420.14453125 385.66796875 C-418.18560464 388.08362141 -416.1579558 390.39047731 -414.0625 392.6875 C-360.79934229 452.13673311 -325.99232846 530.3807203 -308 607.3125 C-307.80809082 608.13137695 -307.61618164 608.95025391 -307.41845703 609.79394531 C-304.39417154 622.90374395 -302.36454253 636.1540878 -300.41845703 649.4609375 C-300.06780261 651.85046123 -299.70755832 654.23806039 -299.33984375 656.625 C-288.07535331 731.38784027 -297.94458005 813.31774669 -322.72265625 884.30078125 C-323.08605103 885.34745972 -323.08605103 885.34745972 -323.45678711 886.4152832 C-324.06296819 888.13637679 -324.69044952 889.84993139 -325.3203125 891.5625 C-326.11185965 894.76508156 -326.25944512 896.25175548 -325 899.3125 C-322.94771794 901.24318731 -321.00953243 902.85298422 -318.75 904.5 C-317.79891357 905.21772583 -317.79891357 905.21772583 -316.82861328 905.94995117 C-315.51802528 906.93868329 -314.20369973 907.92248005 -312.88574219 908.90136719 C-310.17771208 910.92783197 -307.53280016 913.03327676 -304.875 915.125 C-289.609817 926.88895077 -273.55857835 937.46986237 -257 947.3125 C-256.12069824 947.83666504 -255.24139648 948.36083008 -254.33544922 948.90087891 C-225.95703172 965.69036667 -195.02094466 981.27098685 -163.234375 990.3125 C-160.37354339 991.19700832 -157.74143481 992.30476167 -155.00830078 993.51416016 C-150.80672296 995.18437162 -146.41521629 996.29504436 -142.0625 997.5 C-141.09248047 997.77263672 -140.12246094 998.04527344 -139.12304688 998.32617188 C-136.74985289 998.99253669 -134.37553183 999.6545278 -132 1000.3125 C-132 1000.6425 -132 1000.9725 -132 1001.3125 C-140.2352342 1000.80547806 -148.03655469 999.37250996 -156.0625 997.5 C-158.46597878 996.94588948 -160.86962488 996.39250421 -163.2734375 995.83984375 C-165.00932129 995.43934814 -165.00932129 995.43934814 -166.78027344 995.03076172 C-169.48600145 994.42716361 -172.18778085 993.87874381 -174.9140625 993.37890625 C-188.03598541 990.92387474 -199.86559091 985.77143502 -212 980.3125 C-212.84739746 979.93432129 -213.69479492 979.55614258 -214.56787109 979.16650391 C-227.74776198 973.24208827 -240.41407986 966.39941488 -253 959.3125 C-254.13284424 958.67658936 -254.13284424 958.67658936 -255.28857422 958.02783203 C-267.60044285 951.07455498 -279.33186158 943.2893048 -291 935.3125 C-291.76908691 934.78865723 -292.53817383 934.26481445 -293.33056641 933.72509766 C-302.08508744 927.73921556 -310.50398187 921.47120213 -318.6496582 914.67553711 C-322.30516921 911.63159449 -325.99021969 908.87481737 -330 906.3125 C-330.22961426 906.88766357 -330.45922852 907.46282715 -330.69580078 908.05541992 C-343.78972556 940.64310912 -359.27960961 972.18643643 -379 1001.3125 C-379.43344727 1001.95912598 -379.86689453 1002.60575195 -380.31347656 1003.27197266 C-390.31439816 1018.17712116 -400.72541201 1032.85839977 -412.50390625 1046.41796875 C-414.82161686 1049.10564256 -417.04080193 1051.84807505 -419.25 1054.625 C-428.87340329 1066.39633338 -439.71392071 1077.11675226 -450.4375 1087.875 C-451.36071045 1088.8028833 -452.2839209 1089.7307666 -453.23510742 1090.68676758 C-458.33035443 1095.77002902 -463.52237216 1100.64560546 -469 1105.3125 C-470.08320624 1106.26168161 -471.16528745 1107.21214904 -472.24609375 1108.1640625 C-481.18932483 1115.96504206 -490.47992552 1123.23070005 -500 1130.3125 C-500.70608398 1130.83956543 -501.41216797 1131.36663086 -502.13964844 1131.90966797 C-546.3280247 1164.7627651 -594.81393878 1189.83167776 -647 1207.3125 C-648.05832031 1207.66795898 -649.11664062 1208.02341797 -650.20703125 1208.38964844 C-663.37859352 1212.75693169 -676.69374517 1216.35679714 -690.1875 1219.5625 C-690.85896057 1219.72349182 -691.53042114 1219.88448364 -692.222229 1220.050354 C-696.3316778 1221.02869812 -700.45201997 1221.93372953 -704.58630562 1222.8006382 C-706.15822631 1223.13398867 -707.72836563 1223.47589042 -709.296278 1223.82761192 C-727.09135394 1227.76389068 -744.6608806 1227.93907943 -762.77918887 1227.91566515 C-766.13006399 1227.91348822 -769.48086652 1227.9233869 -772.83172566 1227.93287599 C-780.76377026 1227.95489289 -788.69562536 1227.95604275 -796.62768555 1227.94384766 C-804.71040354 1227.93180837 -812.79242167 1227.9563268 -820.87502044 1227.99898779 C-827.90187236 1228.03466193 -834.92850616 1228.04615365 -841.95544487 1228.03971231 C-846.11351603 1228.03615259 -850.27108925 1228.04066999 -854.42907524 1228.06914139 C-876.35456513 1228.20636984 -896.58710238 1226.21271588 -918 1221.3125 C-918.69122444 1221.15534614 -919.38244888 1220.99819227 -920.09461951 1220.83627617 C-942.56606811 1215.72668831 -964.30706517 1209.06656483 -986 1201.3125 C-987.2370166 1200.87067383 -988.4740332 1200.42884766 -989.74853516 1199.97363281 C-1024.77596939 1187.25669718 -1059.5803931 1170.01670563 -1090.140625 1148.60351562 C-1092.2868129 1147.11335785 -1094.45456952 1145.65773761 -1096.625 1144.203125 C-1106.41601451 1137.61962931 -1115.85196319 1130.76136501 -1125 1123.3125 C-1126.3921875 1122.19294922 -1126.3921875 1122.19294922 -1127.8125 1121.05078125 C-1144.3008309 1107.70194359 -1159.85636782 1093.53553054 -1174.875 1078.5625 C-1175.37345428 1078.06672455 -1175.87190857 1077.5709491 -1176.38546753 1077.06015015 C-1182.14446405 1071.32464278 -1187.73444419 1065.5073713 -1193 1059.3125 C-1193.94905855 1058.22918594 -1194.89952656 1057.14710466 -1195.8515625 1056.06640625 C-1203.65254206 1047.12317517 -1210.91820005 1037.83257448 -1218 1028.3125 C-1218.79059814 1027.25337402 -1218.79059814 1027.25337402 -1219.59716797 1026.17285156 C-1252.4502651 981.9844753 -1277.51917776 933.49856122 -1295 881.3125 C-1295.35545898 880.25417969 -1295.71091797 879.19585938 -1296.07714844 878.10546875 C-1310.95920529 833.22174423 -1320.02818061 784.9219071 -1320.203125 737.60546875 C-1320.21357849 735.6976915 -1320.21357849 735.6976915 -1320.22424316 733.75137329 C-1320.24352498 729.66757785 -1320.24841897 725.58383601 -1320.25 721.5 C-1320.25058914 720.80509335 -1320.25117828 720.11018669 -1320.25178528 719.39422226 C-1320.26427176 698.54123154 -1319.87456895 678.00203359 -1317 657.3125 C-1316.70700934 655.02083613 -1316.41404074 652.72916945 -1316.12109375 650.4375 C-1306.15649455 575.82011136 -1279.28994569 501.77270603 -1237 439.3125 C-1236.56655273 438.66587402 -1236.13310547 438.01924805 -1235.68652344 437.35302734 C-1225.68560184 422.44787884 -1215.27458799 407.76660023 -1203.49609375 394.20703125 C-1201.17838314 391.51935744 -1198.95919807 388.77692495 -1196.75 386 C-1187.12659671 374.22866662 -1176.28607929 363.50824774 -1165.5625 352.75 C-1164.63928955 351.8221167 -1163.7160791 350.8942334 -1162.76489258 349.93823242 C-1157.66964557 344.85497098 -1152.47762784 339.97939454 -1147 335.3125 C-1145.91679376 334.36331839 -1144.83471255 333.41285096 -1143.75390625 332.4609375 C-1134.81067517 324.65995794 -1125.52007448 317.39429995 -1116 310.3125 C-1115.29391602 309.78543457 -1114.58783203 309.25836914 -1113.86035156 308.71533203 C-1069.6719753 275.8622349 -1021.18606122 250.79332224 -969 233.3125 C-967.94167969 232.95704102 -966.88335938 232.60158203 -965.79296875 232.23535156 C-920.90924423 217.35329471 -872.6094071 208.28431939 -825.29296875 208.109375 C-824.02111725 208.10240601 -822.74926575 208.09543701 -821.43887329 208.08825684 C-817.35507785 208.06897502 -813.27133601 208.06408103 -809.1875 208.0625 C-808.49259335 208.06191086 -807.79768669 208.06132172 -807.08172226 208.06071472 C-786.22873154 208.04822824 -765.68953359 208.43793105 -745 211.3125 C-742.70833613 211.60549066 -740.41666945 211.89845926 -738.125 212.19140625 C-663.50761136 222.15600545 -589.46020603 249.02255431 -527 291.3125 C-526.35337402 291.74594727 -525.70674805 292.17939453 -525.04052734 292.62597656 C-509.06040766 303.34817259 -493.45752145 314.59403409 -479 327.3125 C-475.98060161 321.4301135 -473.3102802 315.46915625 -470.75 309.375 C-463.40940644 292.13552192 -455.18665141 275.65012439 -446 259.3125 C-445.57460937 258.55437012 -445.14921875 257.79624023 -444.7109375 257.01513672 C-437.75905184 244.70637464 -429.97487913 232.97782164 -422 221.3125 C-421.47615723 220.54341309 -420.95231445 219.77432617 -420.41259766 218.98193359 C-413.5520272 208.94815622 -406.22799528 199.41603077 -398.45605469 190.07275391 C-396.42138879 187.61300522 -394.43426675 185.11555203 -392.4375 182.625 C-387.7109122 176.85476781 -382.64905044 171.42012788 -377.55273438 165.97851562 C-376.00951894 164.3227134 -374.47929297 162.6558923 -372.953125 160.984375 C-364.73625189 151.99107308 -356.42880959 143.09641308 -347.1484375 135.1796875 C-344.96780107 133.2845162 -342.84587519 131.33280926 -340.72875977 129.3671875 C-334.68155233 123.75773926 -328.45601828 118.45114158 -322 113.3125 C-320.93226156 112.45186027 -319.86455445 111.59118166 -318.796875 110.73046875 C-309.8055638 103.52883558 -300.49167463 96.83690912 -291 90.3125 C-290.36449219 89.87550781 -289.72898437 89.43851562 -289.07421875 88.98828125 C-273.98172013 78.66183483 -258.3421604 69.25332854 -242.26660156 60.54199219 C-240.763576 59.7266931 -239.26288656 58.90707151 -237.76464844 58.08300781 C-165.5135453 18.38425354 -82.05731356 -0.23261947 0 0 Z M-822.21112061 215.34179688 C-838.34911541 215.56810315 -854.14823385 216.6214486 -870.12353516 218.9140625 C-873.0099723 219.31388133 -875.89841599 219.66434312 -878.79296875 220 C-891.5169721 221.49713123 -903.8887639 223.8166756 -916.36621094 226.71142578 C-918.77327938 227.26075861 -921.1837453 227.77781658 -923.6015625 228.27734375 C-997.58468576 243.67152758 -1069.30788451 280.76601225 -1127.26464844 328.88134766 C-1128.80160365 330.14888163 -1130.35658166 331.39449207 -1131.9140625 332.63671875 C-1139.29214597 338.52395054 -1146.12855544 344.92442192 -1152.97802734 351.40820312 C-1155.06413336 353.3729009 -1157.16473618 355.32097219 -1159.26953125 357.265625 C-1159.97634033 357.92095215 -1160.68314941 358.5762793 -1161.41137695 359.25146484 C-1162.75761282 360.49934917 -1164.10623287 361.74466875 -1165.45776367 362.98681641 C-1169.32649281 366.58761414 -1172.86710379 370.34639052 -1176.30761719 374.35742188 C-1178.90908133 377.36269089 -1181.64828865 380.23386804 -1184.375 383.125 C-1189.85286966 388.98643012 -1195.02286673 395.016863 -1200 401.3125 C-1200.84600157 402.36616862 -1201.69237197 403.41954117 -1202.5390625 404.47265625 C-1265.08020283 482.6975234 -1306.82304276 581.93497868 -1310.33984375 779.515625 C-1309.03432716 791.16792917 -1306.9040916 802.61885631 -1304.45996094 814.07958984 C-1304.03370224 816.14889029 -1303.64932272 818.2191037 -1303.2890625 820.30078125 C-1292.57238623 882.01622872 -1266.13397906 943.05880122 -1232 995.3125 C-1231.31550781 996.37339844 -1230.63101563 997.43429687 -1229.92578125 998.52734375 C-1220.56974897 1012.82618553 -1210.34111538 1026.43568019 -1199.43115234 1039.57714844 C-1198.16361837 1041.11410365 -1196.91800793 1042.66908166 -1195.67578125 1044.2265625 C-1189.7606592 1051.639599 -1183.32011616 1058.49983731 -1176.80957031 1065.38525391 C-1175.02200524 1067.28906377 -1173.25397469 1069.20905221 -1171.4921875 1071.13671875 C-1166.47511321 1076.62029671 -1161.53329089 1081.98267426 -1155.8125 1086.75 C-1153.82171406 1088.46619477 -1152.01610701 1090.29990567 -1150.1875 1092.1875 C-1146.28044013 1096.15584708 -1142.05481083 1099.61496662 -1137.71484375 1103.09765625 C-1135.28007181 1105.08400976 -1132.94611216 1107.13331607 -1130.625 1109.25 C-1055.6868265 1176.39037414 -951.0610181 1215.66117445 -768.13890076 1224.08848572 C-749.87599972 1223.03954664 -732.11694239 1220.58643248 -714.23291016 1216.77246094 C-712.16360971 1216.34620224 -710.0933963 1215.96182272 -708.01171875 1215.6015625 C-646.29627128 1204.88488623 -585.25369878 1178.44647906 -533 1144.3125 C-531.93910156 1143.62800781 -530.87820313 1142.94351563 -529.78515625 1142.23828125 C-515.48631447 1132.88224897 -501.87681981 1122.65361538 -488.73535156 1111.74365234 C-487.19839635 1110.47611837 -485.64341834 1109.23050793 -484.0859375 1107.98828125 C-476.672901 1102.0731592 -469.81266269 1095.63261616 -462.92724609 1089.12207031 C-461.02343623 1087.33450524 -459.10344779 1085.56647469 -457.17578125 1083.8046875 C-451.69220329 1078.78761321 -446.32982574 1073.84579089 -441.5625 1068.125 C-439.84630523 1066.13421406 -438.01259433 1064.32860701 -436.125 1062.5 C-432.15665292 1058.59294013 -428.69753338 1054.36731083 -425.21484375 1050.02734375 C-423.22849024 1047.59257181 -421.17918393 1045.25861216 -419.0625 1042.9375 C-400.01606896 1021.67898347 -384.35858274 996.88502145 -370 972.3125 C-369.58282715 971.60351562 -369.1656543 970.89453125 -368.73583984 970.1640625 C-348.88136278 936.22534116 -334.45286239 899.83105059 -323 862.3125 C-322.69868164 861.34554199 -322.39736328 860.37858398 -322.08691406 859.38232422 C-313.56263188 831.95702765 -308.24849067 802.95969655 -305.2265625 774.40527344 C-305.06976299 772.95690557 -304.90239001 771.50965783 -304.7265625 770.06347656 C-302.25671477 749.5620716 -302.71517562 728.92195224 -303 708.3125 C-303.00966797 707.5828302 -303.01933594 706.8531604 -303.02929688 706.10137939 C-303.25560315 689.96338459 -304.3089486 674.16426615 -306.6015625 658.18896484 C-307.00138133 655.3025277 -307.35184312 652.41408401 -307.6875 649.51953125 C-309.18463123 636.7955279 -311.5041756 624.4237361 -314.39892578 611.94628906 C-314.94825861 609.53922062 -315.46531658 607.1287547 -315.96484375 604.7109375 C-331.35902758 530.72781424 -368.45351225 459.00461549 -416.56884766 401.04785156 C-417.83638163 399.51089635 -419.08199207 397.95591834 -420.32421875 396.3984375 C-426.2393408 388.985401 -432.67988384 382.12516269 -439.19042969 375.23974609 C-440.97799476 373.33593623 -442.74602531 371.41594779 -444.5078125 369.48828125 C-449.52488679 364.00470329 -454.46670911 358.64232574 -460.1875 353.875 C-462.17828594 352.15880523 -463.98389299 350.32509433 -465.8125 348.4375 C-469.71955987 344.46915292 -473.94518917 341.01003338 -478.28515625 337.52734375 C-480.71992819 335.54099024 -483.05388784 333.49168393 -485.375 331.375 C-506.63351653 312.32856896 -531.42747855 296.67108274 -556 282.3125 C-556.70898438 281.89532715 -557.41796875 281.4781543 -558.1484375 281.04833984 C-592.08715884 261.19386278 -628.48144941 246.76536239 -666 235.3125 C-666.96695801 235.01118164 -667.93391602 234.70986328 -668.93017578 234.39941406 C-696.35547235 225.87513188 -725.35280345 220.56099067 -753.90722656 217.5390625 C-755.35559443 217.38226299 -756.80284217 217.21489001 -758.24902344 217.0390625 C-779.48172189 214.48111429 -800.86887376 215.05901667 -822.21112061 215.34179688 Z " fill="#757573" transform="translate(1509,172.6875)"/>
<path d="M0 0 C33.33 0 66.66 0 101 0 C101 63.36 101 126.72 101 192 C67.67 192 34.34 192 0 192 C0 128.64 0 65.28 0 0 Z " fill="#FFC000" transform="translate(854,2064)"/>
<path d="M0 0 C33.33 0 66.66 0 101 0 C101 63.36 101 126.72 101 192 C67.67 192 34.34 192 0 192 C0 128.64 0 65.28 0 0 Z " fill="#FF0000" transform="translate(643,2064)"/>
<path d="M0 0 C33.33 0 66.66 0 101 0 C101 63.36 101 126.72 101 192 C67.67 192 34.34 192 0 192 C0 128.64 0 65.28 0 0 Z " fill="#FF0000" transform="translate(437,2064)"/>
<path d="M0 0 C33.33 0 66.66 0 101 0 C101 63.03 101 126.06 101 191 C67.67 191 34.34 191 0 191 C0 127.97 0 64.94 0 0 Z " fill="#FFC000" transform="translate(1485,2064)"/>
<path d="M0 0 C33.33 0 66.66 0 101 0 C101 63.03 101 126.06 101 191 C67.67 191 34.34 191 0 191 C0 127.97 0 64.94 0 0 Z " fill="#FF0000" transform="translate(1275,2064)"/>
<path d="M0 0 C33.33 0 66.66 0 101 0 C101 63.03 101 126.06 101 191 C67.67 191 34.34 191 0 191 C0 127.97 0 64.94 0 0 Z " fill="#70AD46" transform="translate(1065,2064)"/>
<path d="M0 0 C37.95 0 75.9 0 115 0 C115 67.65 115 135.3 115 205 C77.05 205 39.1 205 0 205 C0 137.35 0 69.7 0 0 Z M7 7 C7 70.03 7 133.06 7 198 C40.33 198 73.66 198 108 198 C108 134.97 108 71.94 108 7 C74.67 7 41.34 7 7 7 Z " fill="#404040" transform="translate(1478,2057)"/>
<path d="M0 0 C37.95 0 75.9 0 115 0 C115 67.65 115 135.3 115 205 C77.05 205 39.1 205 0 205 C0 137.35 0 69.7 0 0 Z M7 7 C7 70.03 7 133.06 7 198 C40.33 198 73.66 198 108 198 C108 134.97 108 71.94 108 7 C74.67 7 41.34 7 7 7 Z " fill="#404040" transform="translate(1268,2057)"/>
<path d="M0 0 C37.95 0 75.9 0 115 0 C115 67.65 115 135.3 115 205 C77.05 205 39.1 205 0 205 C0 137.35 0 69.7 0 0 Z M7 7 C7 70.03 7 133.06 7 198 C40.33 198 73.66 198 108 198 C108 134.97 108 71.94 108 7 C74.67 7 41.34 7 7 7 Z " fill="#404040" transform="translate(1058,2057)"/>
<path d="M0 0 C2.62728858 0.61642534 5.25153582 1.24267787 7.875 1.875 C8.62136719 2.04902344 9.36773438 2.22304687 10.13671875 2.40234375 C15.7734375 3.7734375 15.7734375 3.7734375 18 6 C11.74892565 5.57045059 5.95795479 4.98598493 0 3 C0 2.01 0 1.02 0 0 Z " fill="#7F7F65" transform="translate(1359,1168)"/>
</svg>
